<?xml version="1.0" encoding="UTF-8"?> <svg xmlns="http://www.w3.org/2000/svg" width="60" height="60" viewBox="0 0 60 60" fill="none"> <path d="M34.4713 6C28.7973 6 23.9848 8.99065 21.5847 13.9033C20.3527 13.1289 18.869 12.7143 17.2775 12.7143C13.2041 12.7143 10.0919 15.8104 9.84219 20.0012C4.84587 21.6887 2 25.6506 2 30.9884C2 36.9541 6.85847 41.8095 12.8303 41.8095H14.32V39.5714H12.8303C8.09383 39.5714 4.24 35.7209 4.24 30.9884C4.24 24.771 8.6367 22.63 11.2575 21.9071L12.1106 21.6732L12.0647 20.5476C12.0647 17.3572 14.3061 14.9524 17.2775 14.9524C18.8545 14.9524 20.2634 15.4943 21.2456 16.478L22.4816 17.715L23.0897 16.0758C24.8794 11.2426 29.2408 8.2381 34.4713 8.2381C41.3839 8.2381 46.8 13.6453 46.8 20.5476C46.8 21.012 46.7656 21.5031 46.6928 22.0929L46.6031 23.3474H47.8697C51.9991 23.3474 55.76 27.3991 55.76 31.8496C55.76 35.0422 53.8401 37.8621 50.8688 39.0338C49.9649 39.3907 49.0094 39.5714 48.0294 39.5714H45.68V41.8095H48.0294C49.2916 41.8095 50.5242 41.5777 51.6913 41.1167C55.5239 39.606 58 35.9677 58 31.8496C58 26.5576 53.9505 21.8671 49.0225 21.1946C49.0337 20.973 49.04 20.758 49.04 20.5476C49.04 12.3898 42.6405 6 34.4713 6ZM29.9825 25.0085C29.6858 25.0131 29.4031 25.1352 29.1964 25.3479C28.9897 25.5605 28.8759 25.8464 28.88 26.1429V44.2749C27.9884 44.4922 27.1838 44.8638 26.6422 45.4727C25.8769 46.3328 25.52 47.4358 25.52 48.5238C25.52 49.6118 25.8769 50.7148 26.6422 51.575C27.4075 52.4352 28.6 53 30 53C31.4 53 32.5925 52.4352 33.3578 51.575C34.1231 50.7148 34.48 49.6118 34.48 48.5238C34.48 47.4358 34.1231 46.3328 33.3578 45.4727C32.8162 44.8638 32.0116 44.4922 31.12 44.2749V26.1429C31.1221 25.9931 31.094 25.8445 31.0376 25.7058C30.9811 25.5671 30.8973 25.4412 30.7913 25.3354C30.6852 25.2296 30.559 25.1462 30.42 25.09C30.2811 25.0339 30.1323 25.0062 29.9825 25.0085V25.0085ZM23.2669 25.0107C23.104 25.0143 22.9439 25.0533 22.7977 25.125C22.6515 25.1967 22.5227 25.2994 22.4203 25.426L18.6359 29.9612C17.2946 31.5699 16.56 33.5984 16.56 35.6919V44.2749C15.6684 44.4922 14.8638 44.8638 14.3222 45.4727C13.5569 46.3328 13.2 47.4358 13.2 48.5238C13.2 49.6118 13.5569 50.7148 14.3222 51.575C15.0875 52.4352 16.28 53 17.68 53C19.08 53 20.2725 52.4352 21.0378 51.575C21.8031 50.7148 22.16 49.6118 22.16 48.5238C22.16 47.4358 21.8031 46.3328 21.0378 45.4727C20.4962 44.8638 19.6916 44.4922 18.8 44.2749V35.6919C18.8 34.1216 19.3513 32.6017 20.3575 31.395L24.1397 26.8597C24.2809 26.6958 24.3716 26.4946 24.4007 26.2803C24.4298 26.066 24.3962 25.8478 24.3039 25.6522C24.2115 25.4566 24.0645 25.2919 23.8804 25.1781C23.6964 25.0642 23.4833 25.0061 23.2669 25.0107V25.0107ZM36.6981 25.0107C36.4847 25.0128 36.2763 25.0759 36.0975 25.1924C35.9187 25.3088 35.777 25.474 35.689 25.6682C35.6009 25.8625 35.5703 26.0779 35.6007 26.289C35.631 26.5001 35.7211 26.6981 35.8603 26.8597L39.6425 31.395C40.6489 32.6019 41.2 34.1203 41.2 35.6919V44.2749C40.3084 44.4922 39.5038 44.8638 38.9622 45.4727C38.1969 46.3328 37.84 47.4358 37.84 48.5238C37.84 49.6118 38.1969 50.7148 38.9622 51.575C39.7275 52.4352 40.92 53 42.32 53C43.72 53 44.9125 52.4352 45.6778 51.575C46.4431 50.7148 46.8 49.6118 46.8 48.5238C46.8 47.4358 46.4431 46.3328 45.6778 45.4727C45.1362 44.8638 44.3316 44.4922 43.44 44.2749V35.6919C43.44 33.5975 42.7052 31.5697 41.3641 29.9612L37.5797 25.426C37.4735 25.2949 37.3391 25.1894 37.1865 25.1175C37.0338 25.0456 36.8669 25.0091 36.6981 25.0107ZM17.6472 46.2988C17.6698 46.3002 17.6924 46.301 17.715 46.301C18.5229 46.3123 19.0149 46.5686 19.3622 46.9589C19.7169 47.3576 19.92 47.9332 19.92 48.5238C19.92 49.1144 19.7169 49.69 19.3622 50.0887C19.0075 50.4875 18.52 50.7619 17.68 50.7619C16.84 50.7619 16.3525 50.4875 15.9978 50.0887C15.6431 49.69 15.44 49.1144 15.44 48.5238C15.44 47.9332 15.6431 47.3576 15.9978 46.9589C16.3456 46.5679 16.8369 46.3093 17.6472 46.2988ZM29.9672 46.2988C29.9898 46.3002 30.0124 46.301 30.035 46.301C30.8429 46.3123 31.3349 46.5686 31.6822 46.9589C32.0369 47.3576 32.24 47.9332 32.24 48.5238C32.24 49.1144 32.0369 49.69 31.6822 50.0887C31.3275 50.4875 30.84 50.7619 30 50.7619C29.16 50.7619 28.6725 50.4875 28.3178 50.0887C27.9631 49.69 27.76 49.1144 27.76 48.5238C27.76 47.9332 27.9631 47.3576 28.3178 46.9589C28.6656 46.5679 29.1569 46.3093 29.9672 46.2988ZM42.2872 46.2988C42.3098 46.3002 42.3324 46.301 42.355 46.301C43.1629 46.3123 43.6549 46.5686 44.0022 46.9589C44.3569 47.3576 44.56 47.9332 44.56 48.5238C44.56 49.1144 44.3569 49.69 44.0022 50.0887C43.6475 50.4875 43.16 50.7619 42.32 50.7619C41.48 50.7619 40.9925 50.4875 40.6378 50.0887C40.2831 49.69 40.08 49.1144 40.08 48.5238C40.08 47.9332 40.2831 47.3576 40.6378 46.9589C40.9856 46.5679 41.4769 46.3093 42.2872 46.2988Z" fill="white" stroke="white" stroke-width="0.3"></path> </svg> 