<?xml version="1.0" encoding="UTF-8"?> <svg xmlns="http://www.w3.org/2000/svg" width="26" height="17" viewBox="0 0 26 17" fill="none"> <path fill-rule="evenodd" clip-rule="evenodd" d="M26 8.5C26 8.75045 25.9022 8.99064 25.728 9.16773C25.5539 9.34482 25.3177 9.44431 25.0715 9.44431L3.1716 9.44431L9.01566 15.3859C9.19 15.5632 9.28795 15.8037 9.28795 16.0545C9.28795 16.3053 9.19 16.5457 9.01566 16.7231C8.84131 16.9004 8.60484 17 8.35827 17C8.1117 17 7.87523 16.9004 7.70088 16.7231L0.272785 9.16857C0.186316 9.08085 0.117712 8.97665 0.0709034 8.86192C0.0240944 8.7472 -1.68866e-07 8.62421 -1.63436e-07 8.5C-1.58007e-07 8.37579 0.0240945 8.2528 0.0709035 8.13807C0.117712 8.02335 0.186316 7.91914 0.272785 7.83142L7.70088 0.276931C7.87523 0.0996144 8.1117 -7.87831e-07 8.35827 -7.71145e-07C8.60484 -7.54459e-07 8.84131 0.0996144 9.01566 0.276931C9.19001 0.454247 9.28795 0.69474 9.28795 0.945504C9.28795 1.19627 9.19001 1.43676 9.01566 1.61408L3.1716 7.55569L25.0715 7.55569C25.3177 7.55569 25.5539 7.65518 25.728 7.83227C25.9022 8.00936 26 8.24955 26 8.5Z" fill="white"></path> </svg> 