<?xml version="1.0" encoding="UTF-8"?> <!-- Creator: CorelDRAW --> <svg xmlns="http://www.w3.org/2000/svg" xmlns:xlink="http://www.w3.org/1999/xlink" xmlns:xodm="http://www.corel.com/coreldraw/odm/2003" xml:space="preserve" width="96.1256mm" height="108.583mm" style="shape-rendering:geometricPrecision; text-rendering:geometricPrecision; image-rendering:optimizeQuality; fill-rule:evenodd; clip-rule:evenodd" viewBox="0 0 519.11 586.39"> <defs> <style type="text/css"> <![CDATA[ .fil0 {fill:white;fill-rule:nonzero} ]]> </style> </defs> <g id="Layer_x0020_1"> <metadata id="CorelCorpID_0Corel-Layer"></metadata> <g id="_105553120702528"> <path class="fil0" d="M397.02 221.06l-134.5 -24.2c-6.52,-1.4 -11.63,-6.98 -11.63,-13.96l0 -136.36c0,-25.6 -20.94,-46.54 -46.54,-46.54 -22.08,0 -45.88,20.63 -45.88,46.4 0,3.1 -0.19,4.81 -0.19,14.1l0 247.12c0,3.72 -2.33,5.58 -3.26,6.52 -0.93,0.46 -3.72,2.33 -7.45,0.93 -18.62,-7.45 -35.37,-12.57 -51.66,-15.82 -6.05,-1.4 -12.57,-2.33 -19.08,-3.26l-18.62 -2.79c-13.5,-1.86 -26.99,1.86 -37.7,9.77 -10.7,8.38 -18.15,20.48 -20.01,33.97 -1.86,13.5 1.4,26.99 9.77,37.7 8.38,10.7 20.48,18.15 33.97,20.01l18.62 2.79c58.64,7.91 111.23,40.49 144.27,89.35 4.19,6.52 13.03,7.91 19.55,3.72 6.52,-4.19 7.91,-13.03 3.72,-19.55 -37.7,-55.38 -97.27,-92.15 -163.82,-101.45l-18.62 -2.79c-6.05,0 -11.63,-3.26 -15.36,-8.38 -3.72,-5.12 -5.12,-11.17 -4.65,-17.22 0.93,-6.05 4.19,-11.63 8.84,-15.36 5.12,-3.72 11.17,-5.59 17.22,-4.65l18.62 2.79c5.58,0.93 11.63,1.86 17.22,2.79 14.89,2.79 30.25,7.45 47,14.43 11.17,4.19 23.27,2.79 33.04,-3.72 9.77,-6.52 15.82,-17.68 15.82,-29.32l-0 -261.55c0,-10.24 8.38,-18.62 18.62,-18.62 10.24,0 18.62,8.38 18.62,18.62l0 136.82c0,20.48 14.43,37.7 34.44,41.42l134.5 24.2c15.36,2.79 26.53,16.29 26.53,32.11l0 139.15c0,18.62 -3.26,37.23 -9.77,54.92 -2.79,7.45 0.93,15.36 8.38,18.15 1.4,0.47 3.26,0.93 5.12,0.93 5.58,0 11.17,-3.26 13.03,-8.84 7.91,-20.48 11.63,-42.35 11.63,-64.69l0 -140.08c0,-28.85 -20.94,-53.98 -49.8,-59.57zm17.22 304.83l-186.15 0c-7.91,0 -13.96,6.05 -13.96,13.96l0 32.58c0,7.91 6.05,13.96 13.96,13.96l186.15 0c7.91,0 13.96,-6.05 13.96,-13.96l0 -32.58c0,-7.91 -6.05,-13.96 -13.96,-13.96z"></path> <path class="fil0" d="M477.04 60.5l27.46 0c6.98,0 13.03,-4.65 14.43,-11.17 1.4,-8.84 -5.12,-16.75 -13.96,-16.75l-27.92 0c-7.91,0 -13.96,6.05 -13.96,13.96 0,7.91 6.05,13.96 13.96,13.96zm-155.65 -27.92l49.27 0 22.61 0c7.91,0 13.96,6.05 13.96,13.96 0,7.91 -6.05,13.96 -13.96,13.96l-28.48 0 -37.54 0 -28.48 0c-7.91,0 -13.96,-6.05 -13.96,-13.96 0,-7.91 6.05,-13.96 13.96,-13.96l22.61 0z"></path> </g> </g> </svg> 