<?xml version="1.0" encoding="UTF-8"?> <svg xmlns="http://www.w3.org/2000/svg" width="60" height="60" viewBox="0 0 60 60" fill="none"> <path d="M46.7959 36.6839C45.6576 34.3271 41.5855 31.0557 37.6512 27.8948C35.4569 26.1331 33.3834 24.4675 32.0615 23.1547C31.7304 22.8235 31.235 22.7179 30.7976 22.8739C29.9832 23.1668 29.4805 23.3923 29.0842 23.5675C28.4801 23.8363 28.2771 23.9275 27.4626 24.0091C27.1025 24.0451 26.7787 24.2371 26.5781 24.5347C24.8695 27.0715 23.1005 26.8555 21.9187 26.462C21.5417 26.3372 21.4741 26.1763 21.4379 26.0228C21.1841 24.9692 22.4577 22.5163 24.1082 20.877C28.0354 16.9745 30.0605 15.9976 34.338 17.8961C39.1906 20.0513 44.053 21.7387 44.1014 21.7554C44.737 21.9738 45.4209 21.6426 45.6407 21.0162C45.8582 20.3897 45.5271 19.7057 44.8964 19.4874C44.848 19.4706 40.0824 17.8169 35.3264 15.7024C29.785 13.2423 26.7447 14.8624 22.402 19.1777C20.749 20.8194 18.5039 24.141 19.0839 26.5772C19.3328 27.614 20.0675 28.3821 21.1598 28.7396C23.8979 29.6373 26.3966 28.778 28.2575 26.3252C29.026 26.2076 29.4441 26.0348 30.0724 25.754C30.2995 25.6532 30.5654 25.5356 30.9183 25.394C32.3006 26.6828 34.1663 28.1828 36.131 29.7597C39.6835 32.6133 43.7121 35.8487 44.6184 37.7207C45.0655 38.6447 44.5845 39.2472 44.2583 39.5231C43.7798 39.9312 43.1249 40.0608 42.7696 39.8135C42.3781 39.5471 41.8682 39.5303 41.4646 39.7703C41.0586 40.0103 40.8315 40.4639 40.8822 40.9295C40.9644 41.6927 40.2611 42.1296 39.9566 42.2808C39.1833 42.6696 38.3761 42.6024 38.074 42.324C37.7356 42.012 37.2499 41.9208 36.8198 42.0792C36.3896 42.24 36.0899 42.6336 36.0464 43.0896C35.9739 43.8768 35.3866 44.6328 34.6205 44.928C34.2508 45.0672 33.7143 45.1512 33.2334 44.7144C32.9338 44.4456 32.518 44.3423 32.129 44.4359C31.7351 44.5319 31.4185 44.8152 31.2808 45.1919C31.2349 45.312 31.1309 45.6 29.9999 45.6C29.1951 45.6 27.7475 45.06 27.0395 44.5943C26.1913 44.0399 20.8721 40.099 16.2781 36.2781C15.6329 35.7381 14.5164 34.5812 13.5304 33.5588C12.6555 32.6516 11.8556 31.8284 11.4448 31.4828C10.93 31.0507 10.1688 31.1156 9.74101 31.6244C9.31088 32.1308 9.37364 32.8893 9.88363 33.3164C10.2582 33.6309 10.9833 34.3916 11.7831 35.2197C12.861 36.3381 13.975 37.4949 14.7243 38.119C19.2241 41.8607 24.6326 45.9 25.7104 46.6032C26.5997 47.184 28.5161 48 30 48C31.1914 48 32.1074 47.7288 32.7429 47.1984C33.5935 47.5273 34.5602 47.5296 35.4906 47.1696C36.5902 46.7472 37.494 45.8952 38.0064 44.8632C38.9585 45.0648 40.0485 44.9232 41.0393 44.4288C42.0084 43.944 42.7091 43.2024 43.0571 42.3359C44.019 42.3863 45.0098 42.0479 45.829 41.3495C47.2164 40.1711 47.5981 38.3376 46.7959 36.6839Z" fill="white"></path> <path d="M25.1666 16.7993H14.2916C13.6246 16.7993 13.0833 17.337 13.0833 17.9994C13.0833 18.6618 13.6246 19.1995 14.2916 19.1995H25.1666C25.8336 19.1995 26.375 18.6618 26.375 17.9994C26.375 17.337 25.8336 16.7993 25.1666 16.7993Z" fill="white"></path> <path d="M50.3362 34.1302C49.9616 33.5806 49.2125 33.4294 48.6591 33.8038L45.126 36.1606C44.5726 36.5302 44.4251 37.2767 44.7974 37.8262C45.0317 38.1695 45.4136 38.3567 45.8027 38.3567C46.0324 38.3567 46.2667 38.2919 46.4746 38.1527L50.0077 35.7959C50.561 35.4262 50.7084 34.6799 50.3362 34.1302Z" fill="white"></path> <path d="M42.8349 39.8568C41.9698 39.18 38.1006 35.2463 35.7081 32.7695C35.2465 32.2894 34.4805 32.2726 33.9995 32.7335C33.5161 33.1919 33.5016 33.9527 33.9633 34.4303C34.5844 35.0735 40.0629 40.7449 41.3365 41.7434C41.5564 41.9162 41.8223 42.0002 42.0833 42.0002C42.4385 42.0002 42.7938 41.8418 43.0354 41.5418C43.4488 41.0232 43.3594 40.2672 42.8349 39.8568Z" fill="white"></path> <path d="M38.0064 42.264C36.5588 41.1144 32.9217 37.2767 32.1 36.3887C31.6456 35.8991 30.8844 35.8703 30.3914 36.3167C29.9008 36.7654 29.867 37.5263 30.3189 38.0136C30.3624 38.0591 34.7028 42.7129 36.4959 44.1386C36.7183 44.3137 36.9865 44.4001 37.2499 44.4001C37.6028 44.4001 37.9555 44.2441 38.1948 43.9514C38.6106 43.4328 38.526 42.6768 38.0064 42.264Z" fill="white"></path> <path d="M33.1972 44.6809C31.4741 43.2385 27.9482 39.5112 27.2595 38.7791C26.8027 38.2944 26.0366 38.2679 25.5509 38.7215C25.0628 39.1752 25.0385 39.9335 25.4929 40.4184C26.4837 41.472 29.8574 45.0242 31.6385 46.517C31.8656 46.7066 32.1411 46.8002 32.4166 46.8002C32.7598 46.8002 33.103 46.6538 33.3422 46.373C33.7724 45.8641 33.7071 45.1081 33.1972 44.6809Z" fill="white"></path> <path d="M15.123 14.7281C13.0519 12.7793 4.77 12.148 2.28087 12.0016C1.93774 11.9849 1.62112 12.0976 1.37949 12.3256C1.13775 12.5512 1 12.868 1 13.1992V34.7998C1 35.4622 1.54137 35.9999 2.20837 35.9999H9.45837C9.98037 35.9999 10.4444 35.6663 10.6063 35.1718C10.7826 34.6342 14.9466 21.9427 15.4951 15.7025C15.5266 15.3377 15.3912 14.9777 15.123 14.7281ZM8.57625 33.5998H3.41663V14.4857C7.30025 14.7905 11.4907 15.4529 13.0132 16.1873C12.3729 21.4434 9.47525 30.7821 8.57625 33.5998Z" fill="white"></path> <path d="M57.7916 14.3993C48.3038 14.3993 43.0403 16.8114 42.8204 16.9122C42.5063 17.0585 42.2718 17.3298 42.1751 17.6586C42.0785 17.9875 42.1268 18.3403 42.308 18.633C43.8015 21.0211 48.4778 34.2839 49.3768 37.5191C49.5218 38.0399 49.9979 38.3999 50.5416 38.3999H57.7916C58.4586 38.3999 59 37.8622 59 37.1998V15.5993C59 14.9345 58.4586 14.3993 57.7916 14.3993ZM56.5834 35.9999H51.4455C50.3 32.2941 46.9166 22.6315 45.0292 18.6378C46.8731 18.0163 50.8341 16.9482 56.5834 16.8138V35.9999Z" fill="white"></path> </svg> 