<?xml version="1.0" encoding="UTF-8"?> <svg xmlns="http://www.w3.org/2000/svg" width="20" height="20" viewBox="0 0 20 20" fill="none"> <path d="M20 6.15138V14.9231C20 15.7391 19.6708 16.5218 19.0847 17.0988C18.4987 17.6758 17.7038 18 16.875 18H3.125C2.2962 18 1.50134 17.6758 0.915291 17.0988C0.32924 16.5218 0 15.7391 0 14.9231V6.15138L9.6825 11.7612C9.77869 11.8171 9.88833 11.8465 10 11.8465C10.1117 11.8465 10.2213 11.8171 10.3175 11.7612L20 6.15138ZM16.875 2C17.6439 1.99988 18.3859 2.2789 18.959 2.78368C19.5321 3.28846 19.8961 3.98356 19.9813 4.736L10 10.5169L0.0187501 4.736C0.103948 3.98356 0.467905 3.28846 1.04099 2.78368C1.61408 2.2789 2.35607 1.99988 3.125 2H16.875Z" fill="#05DB7D"></path> </svg> 