<?xml version="1.0" encoding="UTF-8"?> <svg xmlns="http://www.w3.org/2000/svg" width="60" height="60" viewBox="0 0 60 60" fill="none"> <path d="M27.2 11.5714H32.8C33.3155 11.5714 33.7333 11.1557 33.7333 10.6429C33.7333 10.13 33.3155 9.71428 32.8 9.71428H27.2C26.6845 9.71428 26.2667 10.13 26.2667 10.6429C26.2667 11.1557 26.6845 11.5714 27.2 11.5714Z" fill="white"></path> <path d="M43.0667 11.5714H53.3333C53.8488 11.5714 54.2667 11.1557 54.2667 10.6429C54.2667 10.13 53.8488 9.71428 53.3333 9.71428H43.0667C42.5512 9.71428 42.1333 10.13 42.1333 10.6429C42.1333 11.1557 42.5512 11.5714 43.0667 11.5714Z" fill="white"></path> <path d="M53.3333 6H6.66667C4.09062 6.00307 2.00309 8.07995 2 10.6429V45.9286C2.00309 48.4915 4.09062 50.5683 6.66667 50.5714H15.0741C18.5908 55.2471 24.1172 58 29.9869 58C35.8567 58 41.3831 55.2471 44.8997 50.5714H53.3333C55.9094 50.5683 57.9969 48.4915 58 45.9286V10.6429C57.9969 8.07995 55.9094 6.00307 53.3333 6ZM6.66667 7.85714H53.3333C54.8797 7.85714 56.1333 9.10435 56.1333 10.6429V13.4286H3.86667V10.6429C3.86667 9.10435 5.12027 7.85714 6.66667 7.85714ZM30 56.1428C24.6266 56.1297 19.5803 53.5728 16.4097 49.2566C16.1723 48.9399 16.1622 48.5085 16.3845 48.1813C16.406 48.159 16.4284 48.1348 16.448 48.1116C16.6183 47.8996 16.877 47.7771 17.1499 47.7792H17.1741C17.4832 47.7894 17.7699 47.9421 17.9497 48.1924C18.5092 48.9507 19.1402 49.654 19.8341 50.2928L19.8509 50.3077C25.5635 55.6097 34.4251 55.6122 40.1407 50.3133C40.1519 50.3031 40.1631 50.2928 40.1733 50.2817C42.1955 48.4184 43.6574 46.0327 44.3957 43.3908C44.4736 43.1112 44.4156 42.8115 44.2391 42.5806C44.0625 42.3497 43.7876 42.2142 43.496 42.2143H42.1688L42.1548 42.0685L44.6748 39.0135C44.694 38.9904 44.7117 38.9662 44.728 38.9411L45.8825 37.5826L49.5785 42.0676L50.3 41.4788L49.5701 42.2124H47.3301C46.8902 42.2128 46.5102 42.5189 46.4183 42.9469C44.7305 50.6302 37.905 56.1161 30 56.1428ZM23.3323 50.5714H36.7088C32.5973 53.0476 27.4438 53.0476 23.3323 50.5714ZM53.3333 48.7143H46.1467C47.001 47.2622 47.6498 45.6999 48.0749 44.0714H49.5683C50.3023 44.0714 50.9693 43.647 51.2772 42.9841C51.6122 42.298 51.5145 41.4807 51.0271 40.892L47.3311 36.407C46.9743 35.9718 46.4396 35.7194 45.8751 35.7198C45.3111 35.7191 44.7764 35.9699 44.4181 36.4033L43.2412 37.8258C43.2197 37.8528 43.1992 37.8797 43.1805 37.9085L40.7184 40.8948C40.2335 41.4839 40.1366 42.2996 40.4701 42.985C40.7772 43.6446 41.44 44.0681 42.1707 44.0714H42.208C41.5313 45.8226 40.4804 47.4067 39.128 48.7143H20.8991C20.3727 48.2158 19.8891 47.6744 19.4533 47.0958C18.9345 46.3804 18.11 45.9467 17.2236 45.923C16.3977 45.8941 15.6036 46.2414 15.0667 46.8664C15.0452 46.8878 15.0228 46.9119 15.0032 46.9351C14.5903 47.4367 14.3662 48.0659 14.3695 48.7143H6.66667C5.12027 48.7143 3.86667 47.4671 3.86667 45.9286V15.2857H56.1333V45.9286C56.1333 47.4671 54.8797 48.7143 53.3333 48.7143Z" fill="white"></path> <path d="M6.66667 11.5714C7.18213 11.5714 7.6 11.1557 7.6 10.6429C7.6 10.13 7.18213 9.71428 6.66667 9.71428C6.1512 9.71428 5.73333 10.13 5.73333 10.6429C5.73333 11.1557 6.1512 11.5714 6.66667 11.5714Z" fill="white"></path> <path d="M10.4 11.5714C10.9155 11.5714 11.3333 11.1557 11.3333 10.6429C11.3333 10.13 10.9155 9.71428 10.4 9.71428C9.88453 9.71428 9.46667 10.13 9.46667 10.6429C9.46667 11.1557 9.88453 11.5714 10.4 11.5714Z" fill="white"></path> <path d="M14.1333 11.5714C14.6488 11.5714 15.0667 11.1557 15.0667 10.6429C15.0667 10.13 14.6488 9.71428 14.1333 9.71428C13.6179 9.71428 13.2 10.13 13.2 10.6429C13.2 11.1557 13.6179 11.5714 14.1333 11.5714Z" fill="white"></path> <path d="M30 20.8571C21.1146 20.8168 13.4458 27.0451 11.7067 35.7143H10.4373C9.70362 35.7143 9.03672 36.1383 8.7284 36.8007C8.39464 37.4872 8.49227 38.3042 8.97853 38.8937L12.6745 43.3796C13.033 43.8142 13.5683 44.0661 14.1333 44.0661C14.6984 44.0661 15.2337 43.8142 15.5921 43.3796L19.29 38.8918C19.7749 38.3027 19.8718 37.487 19.5383 36.8016C19.2302 36.1389 18.5633 35.7145 17.8293 35.7143H17.4747C18.9205 30.8914 23.0344 27.332 28.0359 26.5769C33.0373 25.8218 38.0274 28.0067 40.8463 32.1857C41.3455 32.9348 42.1744 33.4017 43.0769 33.4421C43.9481 33.4873 44.7885 33.1157 45.3384 32.442L45.3431 32.4364L45.3477 32.4299C46.1339 31.4822 46.1996 30.1329 45.5092 29.114C42.0565 23.9503 36.2337 20.8504 30 20.8571ZM43.9001 31.2571C43.7233 31.4797 43.4484 31.6024 43.1637 31.5858C42.851 31.5703 42.5647 31.4067 42.3937 31.1457C39.0375 26.1739 33.0088 23.6931 27.1031 24.8536C21.1974 26.0142 16.5695 30.5891 15.3653 36.4571C15.3093 36.7304 15.3796 37.0142 15.5569 37.2302C15.7342 37.4462 15.9997 37.5715 16.28 37.5714H17.8312L17.8452 37.7181L14.1175 42.2031L10.4215 37.7181L9.7 38.3068L10.4373 37.5714H12.4907C12.9497 37.5716 13.3407 37.2397 13.4128 36.7886C14.5006 30.0009 19.6567 24.569 26.4059 23.1005C33.1552 21.6319 40.1196 24.4265 43.9561 30.1428C44.1838 30.4838 44.1627 30.9324 43.9039 31.2506L44.6263 31.8393L43.9001 31.2571Z" fill="white"></path> <path d="M6.66667 19.9286H8.53333C9.0488 19.9286 9.46667 19.5128 9.46667 19C9.46667 18.4872 9.0488 18.0714 8.53333 18.0714H6.66667C6.1512 18.0714 5.73333 18.4872 5.73333 19C5.73333 19.5128 6.1512 19.9286 6.66667 19.9286Z" fill="white"></path> <path d="M12.2667 19.9286H20.6667C21.1821 19.9286 21.6 19.5128 21.6 19C21.6 18.4872 21.1821 18.0714 20.6667 18.0714H12.2667C11.7512 18.0714 11.3333 18.4872 11.3333 19C11.3333 19.5128 11.7512 19.9286 12.2667 19.9286Z" fill="white"></path> <path d="M15.0667 22.7143C15.0667 22.2014 14.6488 21.7857 14.1333 21.7857H6.66667C6.1512 21.7857 5.73333 22.2014 5.73333 22.7143C5.73333 23.2271 6.1512 23.6429 6.66667 23.6429H14.1333C14.6488 23.6429 15.0667 23.2271 15.0667 22.7143Z" fill="white"></path> <path d="M53.3333 18.0714H51.4667C50.9512 18.0714 50.5333 18.4872 50.5333 19C50.5333 19.5128 50.9512 19.9286 51.4667 19.9286H53.3333C53.8488 19.9286 54.2667 19.5128 54.2667 19C54.2667 18.4872 53.8488 18.0714 53.3333 18.0714Z" fill="white"></path> <path d="M39.3333 19.9286H47.7333C48.2488 19.9286 48.6667 19.5128 48.6667 19C48.6667 18.4872 48.2488 18.0714 47.7333 18.0714H39.3333C38.8179 18.0714 38.4 18.4872 38.4 19C38.4 19.5128 38.8179 19.9286 39.3333 19.9286Z" fill="white"></path> <path d="M53.3333 21.7857H45.8667C45.3512 21.7857 44.9333 22.2014 44.9333 22.7143C44.9333 23.2271 45.3512 23.6429 45.8667 23.6429H53.3333C53.8488 23.6429 54.2667 23.2271 54.2667 22.7143C54.2667 22.2014 53.8488 21.7857 53.3333 21.7857Z" fill="white"></path> </svg> 