<?xml version="1.0" encoding="UTF-8"?> <svg xmlns="http://www.w3.org/2000/svg" width="60" height="60" viewBox="0 0 60 60" fill="none"> <path d="M24.3057 40.9181C24.1017 40.9181 23.8962 40.8474 23.7286 40.7036L17.9596 35.7545C17.7607 35.5836 17.6462 35.334 17.6462 35.0704C17.6462 34.8072 17.7611 34.5576 17.9596 34.3867L23.7286 29.4376C24.1032 29.1158 24.6659 29.1615 24.9853 29.5389C25.3042 29.9168 25.2594 30.4837 24.8843 30.805L19.9128 35.0704L24.8843 39.3358C25.2594 39.6575 25.3042 40.2244 24.9853 40.6018C24.8086 40.8109 24.5579 40.9181 24.3057 40.9181Z" fill="white"></path> <path d="M35.6943 40.9181C35.4421 40.9181 35.1914 40.8109 35.0152 40.6018C34.6958 40.2244 34.7411 39.6575 35.1157 39.3358L40.0872 35.0704L35.1157 30.805C34.7411 30.4837 34.6958 29.9168 35.0152 29.5389C35.3341 29.1615 35.8973 29.1158 36.2714 29.4376L42.0404 34.3867C42.2394 34.5576 42.3538 34.8072 42.3538 35.0704C42.3538 35.334 42.2394 35.5836 42.0404 35.7545L36.2714 40.7036C36.1038 40.8474 35.8983 40.9181 35.6943 40.9181Z" fill="white"></path> <path d="M27.9578 44.6302C27.8966 44.6302 27.8349 44.6236 27.7727 44.6106C27.2911 44.5084 26.9827 44.0317 27.0842 43.5465L30.6796 26.3481C30.7811 25.8629 31.2537 25.5522 31.7358 25.6544C32.2173 25.7567 32.5258 26.2328 32.4243 26.7185L28.8289 43.9169C28.7403 44.34 28.3702 44.6302 27.9578 44.6302Z" fill="white"></path> <path d="M51.0142 54H8.98585C5.68547 54 3 51.2949 3 47.9693V12.0307C3 8.70559 5.68547 6 8.98585 6H51.0142C54.3145 6 57 8.70559 57 12.0307V47.9693C57 51.2949 54.3145 54 51.0142 54ZM8.98585 7.79638C6.66852 7.79638 4.78302 9.69601 4.78302 12.0307V47.9693C4.78302 50.304 6.66852 52.2036 8.98585 52.2036H51.0142C53.3315 52.2036 55.217 50.304 55.217 47.9693V12.0307C55.217 9.69601 53.3315 7.79638 51.0142 7.79638H8.98585Z" fill="white"></path> <path d="M56.1085 20.3826H3.89151C3.39899 20.3826 3 19.9806 3 19.4844C3 18.9887 3.39899 18.5862 3.89151 18.5862H56.1085C56.601 18.5862 57 18.9887 57 19.4844C57 19.9806 56.601 20.3826 56.1085 20.3826Z" fill="white"></path> <path d="M18.2323 16.0846C16.6771 16.0846 15.411 14.809 15.411 13.2422C15.411 11.6748 16.6771 10.3997 18.2323 10.3997C19.7879 10.3997 21.0536 11.6748 21.0536 13.2422C21.0536 14.809 19.7879 16.0846 18.2323 16.0846ZM18.2323 12.1961C17.6602 12.1961 17.194 12.6652 17.194 13.2422C17.194 13.8191 17.6602 14.2882 18.2323 14.2882C18.8049 14.2882 19.2705 13.8191 19.2705 13.2422C19.2705 12.6652 18.8049 12.1961 18.2323 12.1961Z" fill="white"></path> <path d="M9.56394 16.057C8.00827 16.057 6.74265 14.7819 6.74265 13.2146C6.74265 11.6473 8.00827 10.3722 9.56394 10.3722C11.1196 10.3722 12.3852 11.6473 12.3852 13.2146C12.3852 14.7819 11.1196 16.057 9.56394 16.057ZM9.56394 12.1685C8.99182 12.1685 8.52567 12.6382 8.52567 13.2146C8.52567 13.7915 8.99182 14.2606 9.56394 14.2606C10.1366 14.2606 10.6022 13.7915 10.6022 13.2146C10.6022 12.6382 10.1366 12.1685 9.56394 12.1685Z" fill="white"></path> <path d="M26.9006 16.1116C25.3454 16.1116 24.0798 14.8365 24.0798 13.2692C24.0798 11.7024 25.3454 10.4273 26.9006 10.4273C28.4563 10.4273 29.7219 11.7024 29.7219 13.2692C29.7219 14.8365 28.4563 16.1116 26.9006 16.1116ZM26.9006 12.2232C26.3285 12.2232 25.8628 12.6923 25.8628 13.2692C25.8628 13.8461 26.3285 14.3153 26.9006 14.3153C27.4732 14.3153 27.9389 13.8461 27.9389 13.2692C27.9389 12.6923 27.4732 12.2232 26.9006 12.2232Z" fill="white"></path> <path d="M24.3057 40.9181C24.1017 40.9181 23.8962 40.8474 23.7286 40.7036L17.9596 35.7545C17.7607 35.5836 17.6462 35.334 17.6462 35.0704C17.6462 34.8072 17.7611 34.5576 17.9596 34.3867L23.7286 29.4376C24.1032 29.1158 24.6659 29.1615 24.9853 29.5389C25.3042 29.9168 25.2594 30.4837 24.8843 30.805L19.9128 35.0704L24.8843 39.3358C25.2594 39.6575 25.3042 40.2244 24.9853 40.6018C24.8086 40.8109 24.5579 40.9181 24.3057 40.9181Z" stroke="white" stroke-width="0.5"></path> <path d="M35.6943 40.9181C35.4421 40.9181 35.1914 40.8109 35.0152 40.6018C34.6958 40.2244 34.7411 39.6575 35.1157 39.3358L40.0872 35.0704L35.1157 30.805C34.7411 30.4837 34.6958 29.9168 35.0152 29.5389C35.3341 29.1615 35.8973 29.1158 36.2714 29.4376L42.0404 34.3867C42.2394 34.5576 42.3538 34.8072 42.3538 35.0704C42.3538 35.334 42.2394 35.5836 42.0404 35.7545L36.2714 40.7036C36.1038 40.8474 35.8983 40.9181 35.6943 40.9181Z" stroke="white" stroke-width="0.5"></path> <path d="M27.9578 44.6302C27.8966 44.6302 27.8349 44.6236 27.7727 44.6106C27.2911 44.5084 26.9827 44.0317 27.0842 43.5465L30.6796 26.3481C30.7811 25.8629 31.2537 25.5522 31.7358 25.6544C32.2173 25.7567 32.5258 26.2328 32.4243 26.7185L28.8289 43.9169C28.7403 44.34 28.3702 44.6302 27.9578 44.6302Z" stroke="white" stroke-width="0.5"></path> <path d="M51.0142 54H8.98585C5.68547 54 3 51.2949 3 47.9693V12.0307C3 8.70559 5.68547 6 8.98585 6H51.0142C54.3145 6 57 8.70559 57 12.0307V47.9693C57 51.2949 54.3145 54 51.0142 54ZM8.98585 7.79638C6.66852 7.79638 4.78302 9.69601 4.78302 12.0307V47.9693C4.78302 50.304 6.66852 52.2036 8.98585 52.2036H51.0142C53.3315 52.2036 55.217 50.304 55.217 47.9693V12.0307C55.217 9.69601 53.3315 7.79638 51.0142 7.79638H8.98585Z" stroke="white" stroke-width="0.5"></path> <path d="M56.1085 20.3826H3.89151C3.39899 20.3826 3 19.9806 3 19.4844C3 18.9887 3.39899 18.5862 3.89151 18.5862H56.1085C56.601 18.5862 57 18.9887 57 19.4844C57 19.9806 56.601 20.3826 56.1085 20.3826Z" stroke="white" stroke-width="0.5"></path> <path d="M18.2323 16.0846C16.6771 16.0846 15.411 14.809 15.411 13.2422C15.411 11.6748 16.6771 10.3997 18.2323 10.3997C19.7879 10.3997 21.0536 11.6748 21.0536 13.2422C21.0536 14.809 19.7879 16.0846 18.2323 16.0846ZM18.2323 12.1961C17.6602 12.1961 17.194 12.6652 17.194 13.2422C17.194 13.8191 17.6602 14.2882 18.2323 14.2882C18.8049 14.2882 19.2705 13.8191 19.2705 13.2422C19.2705 12.6652 18.8049 12.1961 18.2323 12.1961Z" stroke="white" stroke-width="0.5"></path> <path d="M9.56394 16.057C8.00827 16.057 6.74265 14.7819 6.74265 13.2146C6.74265 11.6473 8.00827 10.3722 9.56394 10.3722C11.1196 10.3722 12.3852 11.6473 12.3852 13.2146C12.3852 14.7819 11.1196 16.057 9.56394 16.057ZM9.56394 12.1685C8.99182 12.1685 8.52567 12.6382 8.52567 13.2146C8.52567 13.7915 8.99182 14.2606 9.56394 14.2606C10.1366 14.2606 10.6022 13.7915 10.6022 13.2146C10.6022 12.6382 10.1366 12.1685 9.56394 12.1685Z" stroke="white" stroke-width="0.5"></path> <path d="M26.9006 16.1116C25.3454 16.1116 24.0798 14.8365 24.0798 13.2692C24.0798 11.7024 25.3454 10.4273 26.9006 10.4273C28.4563 10.4273 29.7219 11.7024 29.7219 13.2692C29.7219 14.8365 28.4563 16.1116 26.9006 16.1116ZM26.9006 12.2232C26.3285 12.2232 25.8628 12.6923 25.8628 13.2692C25.8628 13.8461 26.3285 14.3153 26.9006 14.3153C27.4732 14.3153 27.9389 13.8461 27.9389 13.2692C27.9389 12.6923 27.4732 12.2232 26.9006 12.2232Z" stroke="white" stroke-width="0.5"></path> </svg> 