<?xml version="1.0" encoding="UTF-8"?> <svg xmlns="http://www.w3.org/2000/svg" width="60" height="60" viewBox="0 0 60 60" fill="none"> <path d="M55.8207 45.6285H54.381V20.2056C54.4427 20.1779 54.5087 20.1587 54.5777 20.1502C55.7493 20.0051 56.6328 18.9893 56.6328 17.7872V16.5302C56.6328 15.3282 55.7493 14.3123 54.5777 14.1673C54.3117 14.1344 54.0861 13.948 54.0032 13.6926C53.838 13.1836 53.634 12.6825 53.397 12.2033C53.277 11.9607 53.3064 11.6651 53.4717 11.4502C53.4735 11.4477 53.4754 11.4453 53.4772 11.4427C54.1997 10.4968 54.1175 9.14653 53.2848 8.29852L52.4121 7.40975C51.5797 6.56196 50.2541 6.4782 49.3252 7.21348C49.3227 7.21548 49.3201 7.21749 49.3176 7.21949C49.1066 7.38791 48.8163 7.41777 48.5781 7.29557C48.1074 7.05419 47.6154 6.84645 47.1158 6.67814C46.8649 6.5936 46.6819 6.36391 46.6495 6.09312C46.5071 4.89981 45.5097 4 44.3294 4H43.0951C41.9149 4 40.9174 4.89981 40.775 6.09312C40.7427 6.36402 40.5596 6.5936 40.3087 6.67814C39.8092 6.84645 39.3172 7.05408 38.8464 7.29557C38.6081 7.41777 38.318 7.38791 38.1062 7.21894C37.1771 6.47775 35.847 6.55962 35.0123 7.40964L34.1396 8.29841C33.3051 9.14832 33.2245 10.5029 33.9528 11.45C34.1181 11.6648 34.1475 11.9605 34.0276 12.203C33.6361 12.9947 33.4558 13.5998 33.4081 13.7245C33.3287 13.6985 33.2441 13.684 33.1561 13.684H9.28295C7.26269 13.684 5.619 15.3578 5.619 17.4154V45.6282H4.1793C2.97759 45.6285 2 46.6242 2 47.8481C2 51.2402 4.70987 54 8.04067 54H51.9593C55.2901 54 58 51.2402 58 47.8481C58 46.6242 57.0224 45.6285 55.8207 45.6285ZM34.9789 14.2172C35.1189 13.7861 35.2918 13.3614 35.4928 12.9548C35.8972 12.137 35.7996 11.142 35.2438 10.4193C35.0269 10.1372 35.0508 9.73356 35.2995 9.48015L36.1722 8.59137C36.4211 8.33818 36.8173 8.31356 37.0952 8.53523C37.804 9.10075 38.7811 9.19989 39.5841 8.78819C39.9832 8.58346 40.4004 8.40735 40.8237 8.26477C41.6748 7.97817 42.295 7.2049 42.4035 6.29496C42.4459 5.93929 42.7432 5.67107 43.0949 5.67107H44.3292C44.681 5.67107 44.9782 5.93929 45.0207 6.29496C45.1293 7.2049 45.7493 7.97806 46.6004 8.26477C47.0239 8.40746 47.4409 8.58357 47.84 8.78819C48.6406 9.19877 49.6137 9.10131 50.3221 8.54068C50.3246 8.53868 50.3272 8.53668 50.3299 8.53456C50.6069 8.31367 51.0032 8.33818 51.2519 8.59137L52.1246 9.48015C52.3733 9.73345 52.3974 10.1371 52.1804 10.4192C52.1785 10.4216 52.1767 10.4241 52.1747 10.4266C51.6239 11.1481 51.5282 12.1393 51.9313 12.9549C52.1322 13.3613 52.3052 13.786 52.4453 14.2173C52.7267 15.084 53.486 15.7155 54.3794 15.8261C54.7286 15.8693 54.992 16.1721 54.992 16.5303V17.7874C54.992 18.1456 54.7286 18.4483 54.3795 18.4916C53.4954 18.6009 52.7285 19.2286 52.4453 20.1004C52.3052 20.5317 52.1323 20.9565 51.9312 21.3629C51.5282 22.178 51.6238 23.169 52.1742 23.8905C52.1763 23.8932 52.1783 23.8957 52.1803 23.8984C52.3972 24.1805 52.3732 24.5841 52.1245 24.8375L51.2518 25.7263C51.003 25.9796 50.6066 26.0041 50.329 25.7826C49.62 25.217 48.643 25.1177 47.8399 25.5296C47.4408 25.7342 47.0238 25.9103 46.6004 26.053C45.7493 26.3396 45.1293 27.1128 45.0206 28.0228C44.9781 28.3784 44.681 28.6466 44.3291 28.6466H43.0948C42.7431 28.6466 42.4458 28.3784 42.4033 28.0227C42.2947 27.1128 41.6747 26.3396 40.8236 26.053C40.4001 25.9103 39.983 25.7342 39.584 25.5295C39.2547 25.3606 38.896 25.2776 38.5386 25.2776C38.0245 25.2776 37.5129 25.4492 37.0943 25.7831C36.8173 26.004 36.4209 25.9796 36.1721 25.7263L35.2994 24.8375C35.0507 24.5842 35.0267 24.1805 35.2437 23.8984C35.2454 23.8961 35.2473 23.8937 35.249 23.8914C35.8 23.1698 35.8959 22.1783 35.4926 21.3629C35.2916 20.9564 35.1188 20.5317 34.9786 20.1005C34.6972 19.2338 33.9379 18.6022 33.0445 18.4917C32.6952 18.4485 32.4318 18.1457 32.4318 17.7875V16.5304C32.4318 16.1722 32.6952 15.8695 33.0445 15.8262C33.9382 15.7154 34.6974 15.0839 34.9789 14.2172ZM7.25963 17.4158C7.25963 16.2796 8.16722 15.3552 9.28295 15.3552H31.0991C30.9041 15.7037 30.7915 16.1047 30.7915 16.5303V17.7874C30.7915 18.9894 31.6751 20.0052 32.8468 20.1503C33.1128 20.1831 33.3382 20.3696 33.4213 20.625C33.5864 21.1338 33.7904 21.6349 34.0275 22.1144C34.1475 22.3569 34.1181 22.6525 33.9528 22.8674C33.951 22.8698 33.9491 22.8723 33.9472 22.8749C33.2248 23.8209 33.307 25.171 34.1396 26.019L35.0123 26.9078C35.8469 27.7577 37.177 27.8398 38.107 27.0981C38.318 26.9297 38.6083 26.8999 38.8464 27.0219C39.3171 27.2633 39.8091 27.4711 40.3088 27.6394C40.5597 27.724 40.7427 27.9536 40.7751 28.2245C40.9175 29.4177 41.915 30.3175 43.0952 30.3175H44.3295C45.5098 30.3175 46.5073 29.4177 46.6497 28.2243C46.682 27.9535 46.8651 27.7239 47.116 27.6394C47.6155 27.4711 48.1075 27.2634 48.5783 27.022C48.8163 26.8999 49.1066 26.9297 49.3186 27.0987C50.2477 27.8398 51.5777 27.7578 52.4124 26.9079L52.7406 26.5737V45.6287H7.25963V17.4158ZM22.0922 47.2994H37.9078V48.1391C37.9078 48.6022 37.5379 48.9789 37.0832 48.9789H22.9168C22.4621 48.9789 22.0922 48.6022 22.0922 48.1391V47.2994ZM51.9593 52.3292H8.04067C5.61452 52.3292 3.64062 50.3189 3.64062 47.8481C3.64062 47.5455 3.88223 47.2995 4.1793 47.2995H20.4516V48.1392C20.4516 49.5236 21.5575 50.6498 22.9168 50.6498H37.0832C38.4425 50.6498 39.5484 49.5236 39.5484 48.1392V47.2995H55.8207C56.1178 47.2995 56.3594 47.5455 56.3594 47.8481C56.3594 50.3189 54.3855 52.3292 51.9593 52.3292Z" fill="white"></path> <path d="M50.5303 41.7781V30.3761C50.5303 29.9147 50.1631 29.5406 49.71 29.5406C49.257 29.5406 48.8897 29.9147 48.8897 30.3761V41.707H11.1103V19.2766H27.8724C28.3255 19.2766 28.6928 18.9026 28.6928 18.4412C28.6928 17.9798 28.3255 17.6058 27.8724 17.6058H11.0404C10.1743 17.6058 9.46966 18.3234 9.46966 19.2055V41.7781C9.46966 42.6602 10.1743 43.3778 11.0404 43.3778H48.9595C49.8257 43.3779 50.5303 42.6602 50.5303 41.7781Z" fill="white"></path> <path d="M26.2133 22.6485C26.2127 22.6493 26.2119 22.6501 26.2112 22.6509C26.1353 22.7371 26.0147 22.7689 25.8962 22.7343C25.5248 22.6257 25.1427 22.5434 24.7603 22.4898C24.6384 22.4726 24.5414 22.393 24.507 22.2817C24.2129 21.3326 23.2662 20.7548 22.306 20.9375L21.4146 21.1071C20.454 21.29 19.7765 22.1769 19.8388 23.17C19.8462 23.2864 19.7839 23.3965 19.6763 23.4572C19.3389 23.6478 19.0116 23.8651 18.7036 24.103C18.6045 24.1798 18.4797 24.1938 18.3778 24.1398C18.3768 24.1392 18.3758 24.1388 18.3749 24.1382C17.5082 23.6806 16.4396 23.9539 15.8878 24.774L15.3754 25.5358C14.8229 26.3569 14.9596 27.4719 15.6934 28.1294C15.6941 28.13 15.6947 28.1307 15.6955 28.1312C15.7803 28.2085 15.8118 28.3313 15.7776 28.4522C15.6709 28.8309 15.5901 29.2202 15.5376 29.6091C15.5207 29.7332 15.4425 29.832 15.3334 29.8671C14.4014 30.1665 13.8339 31.1303 14.0134 32.1087L14.18 33.0164C14.3596 33.9949 15.2311 34.6852 16.2056 34.6213C16.3204 34.6141 16.428 34.6774 16.4876 34.7867C16.6747 35.1305 16.8881 35.4639 17.1217 35.7774C17.197 35.8784 17.2108 36.0055 17.1578 36.1093C17.1573 36.1104 17.1566 36.1116 17.1561 36.1127C16.7072 36.9952 16.9755 38.0832 17.7807 38.6452L18.5287 39.167C19.335 39.7295 20.4298 39.5902 21.0753 38.8431C21.076 38.8423 21.0766 38.8417 21.0773 38.8409C21.1532 38.7547 21.2737 38.7227 21.3925 38.7573C21.7642 38.8661 22.1464 38.9484 22.5285 39.0018C22.6502 39.0189 22.7473 39.0986 22.7818 39.2099C23.0395 40.0413 23.7973 40.5878 24.6271 40.5878C24.9193 40.5877 25.0397 40.5347 25.8742 40.3845C26.8347 40.2016 27.5123 39.3148 27.45 38.3215C27.4427 38.2052 27.5049 38.0951 27.6126 38.0344C27.9499 37.8439 28.2771 37.6266 28.5851 37.3887C28.6843 37.3121 28.8091 37.2979 28.911 37.3519C28.9135 37.3533 28.916 37.3546 28.9186 37.3559C29.7845 37.8102 30.8503 37.5364 31.401 36.7177L31.9135 35.9558C32.4659 35.1347 32.3291 34.0198 31.5956 33.3623C31.5948 33.3616 31.5941 33.361 31.5934 33.3603C31.5086 33.283 31.4771 33.1602 31.5112 33.0393C31.6179 32.661 31.6987 32.2718 31.7513 31.8824C31.768 31.7583 31.8464 31.6595 31.9555 31.6244C32.8875 31.325 33.4549 30.3614 33.2755 29.3829L33.1089 28.4751C32.9293 27.4966 32.0581 26.8075 31.0831 26.8702C30.9693 26.8781 30.8609 26.8143 30.8013 26.7047C30.6141 26.361 30.4008 26.0277 30.1671 25.7141C30.0919 25.6131 30.0781 25.486 30.131 25.3823C30.1317 25.3811 30.1322 25.38 30.1329 25.3787C30.5815 24.4964 30.3134 23.4083 29.5082 22.8466L28.7601 22.3246C27.9538 21.7622 26.8591 21.9014 26.2133 22.6485ZM27.8327 23.703L28.5809 24.225C28.7036 24.3107 28.7444 24.4766 28.6757 24.611C28.6751 24.6121 28.6745 24.6133 28.6738 24.6145C28.3322 25.2862 28.4052 26.114 28.8601 26.7241C29.0467 26.9745 29.217 27.2407 29.3664 27.515C29.7309 28.1845 30.4459 28.5852 31.1877 28.5377C31.3377 28.5272 31.4688 28.6331 31.496 28.7821L31.6626 29.6898C31.69 29.8387 31.6035 29.9854 31.4616 30.031C30.7527 30.2589 30.2285 30.8961 30.1259 31.6545C30.0838 31.9654 30.0192 32.2761 29.9342 32.5781C29.7261 33.3157 29.9525 34.1158 30.5112 34.6164C30.5119 34.617 30.5125 34.6175 30.5132 34.6182C30.6233 34.7186 30.6436 34.8872 30.5599 35.0115L30.0474 35.7734C29.9631 35.8984 29.8003 35.9396 29.6683 35.87C29.6655 35.8686 29.6629 35.8671 29.6602 35.8658C29.0016 35.5206 28.1912 35.5958 27.5933 36.0578C27.3473 36.248 27.0861 36.4214 26.8169 36.5734C26.1594 36.9447 25.7652 37.6729 25.8127 38.4283C25.8222 38.5795 25.7191 38.7146 25.5727 38.7423L24.6814 38.9119C24.5353 38.9397 24.3911 38.8518 24.3464 38.7073C24.1227 37.9854 23.497 37.4514 22.7523 37.3469C22.4473 37.3043 22.1422 37.2385 21.8454 37.1518C21.6668 37.0995 21.4846 37.0742 21.3039 37.0742C20.7517 37.0742 20.2143 37.3109 19.844 37.7396C19.8434 37.7402 19.8429 37.7409 19.8422 37.7416C19.7438 37.8537 19.5782 37.8742 19.456 37.789L18.708 37.2672C18.5853 37.1815 18.5445 37.0155 18.6132 36.8811C18.6137 36.8801 18.6143 36.879 18.6148 36.8779C18.9565 36.2062 18.8837 35.3783 18.4287 34.7678C18.2421 34.5174 18.0718 34.2514 17.9225 33.9771C17.5579 33.3076 16.8434 32.9067 16.1012 32.9544C15.9513 32.9651 15.8202 32.859 15.7928 32.71L15.6263 31.8023C15.5989 31.6534 15.6853 31.5067 15.8272 31.4611C16.536 31.2333 17.0604 30.5959 17.163 29.8375C17.2049 29.527 17.2694 29.2163 17.3546 28.914C17.5626 28.1763 17.3361 27.3763 16.7775 26.8757C16.7768 26.8751 16.776 26.8744 16.7752 26.8736C16.6653 26.7734 16.6453 26.6048 16.7289 26.4806L17.2413 25.7187C17.3255 25.5938 17.4883 25.5523 17.6204 25.6222C17.6213 25.6226 17.6221 25.6232 17.623 25.6236C18.2825 25.9718 19.0957 25.8977 19.6953 25.4344C19.9412 25.2443 20.2025 25.0709 20.4719 24.9187C21.1292 24.5475 21.5234 23.8194 21.4761 23.0639C21.4666 22.9127 21.5697 22.7776 21.7159 22.7499L22.6073 22.5802C22.7531 22.552 22.8975 22.6404 22.9424 22.7849C23.166 23.5068 23.7918 24.0408 24.5365 24.1453C24.8418 24.1881 25.1469 24.2539 25.4433 24.3405C26.1675 24.5523 26.9533 24.3217 27.4449 23.7528C27.4454 23.7522 27.446 23.7515 27.4466 23.7508C27.545 23.6384 27.7106 23.6178 27.8327 23.703Z" fill="white"></path> <path d="M22.6128 25.9888C20.157 26.5392 18.5331 28.9532 18.9158 31.4843C19.3372 34.2703 21.969 36.1097 24.6757 35.5032C27.1316 34.9527 28.7556 32.5388 28.3728 30.0077C27.9537 27.2369 25.3328 25.3791 22.6128 25.9888ZM24.3231 33.8713C22.5557 34.2678 20.8162 33.0732 20.5373 31.23C20.286 29.5676 21.3526 27.9821 22.9654 27.6205C24.7332 27.2242 26.4724 28.4187 26.7512 30.262C27.0027 31.9244 25.9361 33.5099 24.3231 33.8713Z" fill="white"></path> <path d="M43.9276 23.9007C47.4074 23.7875 50.2202 20.9229 50.3313 17.379C50.4533 13.4901 47.3411 10.2923 43.4954 10.4173C40.0156 10.5305 37.2028 13.3951 37.0917 16.9389C36.9699 20.8269 40.0807 24.0259 43.9276 23.9007ZM38.7316 16.9922C38.8151 14.3269 40.9307 12.1722 43.5478 12.0873C46.415 11.9945 48.7842 14.3709 48.6916 17.3257C48.608 19.991 46.4925 22.1456 43.8754 22.2306C41.0069 22.3232 38.6389 19.946 38.7316 16.9922Z" fill="white"></path> </svg> 