<?xml version="1.0" encoding="UTF-8"?> <svg xmlns="http://www.w3.org/2000/svg" width="60" height="60" viewBox="0 0 60 60" fill="none"> <path d="M57.7916 41.6875H54.1666V14.875C54.1666 12.1864 51.999 10 49.3333 10H10.6666C8.00101 10 5.83326 12.1863 5.83326 14.875V41.6875H2.20826C1.54046 41.6875 1 42.2325 1 42.9062V44.125C1 46.8136 3.16764 49 5.83337 49H54.1667C56.8324 49 59 46.8136 59 44.125V42.9062C59 42.2325 58.4595 41.6875 57.7916 41.6875ZM8.25 14.875C8.25 13.5314 9.33444 12.4376 10.6666 12.4376H49.3333C50.6654 12.4376 51.7499 13.5314 51.7499 14.875V41.6875H8.25V14.875ZM54.1666 46.5624H5.83337C4.50118 46.5624 3.41674 45.4686 3.41674 44.125H23.458L24.3124 44.9867C24.5389 45.2152 24.8457 45.3438 25.1667 45.3438H34.8334C35.1543 45.3438 35.4612 45.2152 35.6877 44.9867L36.542 44.125H56.5834C56.5834 45.4686 55.4989 46.5624 54.1666 46.5624Z" fill="white"></path> </svg> 