<?xml version="1.0" encoding="UTF-8"?> <svg xmlns="http://www.w3.org/2000/svg" width="60" height="60" viewBox="0 0 60 60" fill="none"> <path d="M30 3C18.5941 3 3 11.6209 3 30C3 47.9114 17.9988 57 30 57C50.5902 57 57 38.961 57 30C57 16.7764 46.8803 3 30 3ZM23.739 5.54055C20.922 7.94291 18.5835 11.9185 17.074 16.8508C15.1181 15.6921 13.3217 14.2571 11.7272 12.5882C15.0224 9.13346 19.1894 6.70984 23.739 5.54055ZM10.5685 13.885C12.3543 15.7453 14.3846 17.3291 16.5957 18.5835C15.7665 21.8043 15.2776 25.376 15.2138 29.1283H4.76457C4.95591 23.5264 6.99685 18.1795 10.5685 13.885ZM10.5685 46.115C6.98622 41.8205 4.95591 36.4736 4.76457 30.8717H15.2138C15.2776 34.6346 15.7665 38.1957 16.5957 41.4165C14.3953 42.6815 12.365 44.2547 10.5685 46.115ZM11.7272 47.4224C13.3217 45.7535 15.1181 44.3185 17.074 43.1598C18.5835 48.0815 20.922 52.0677 23.739 54.4701C19.1894 53.2902 15.0224 50.8665 11.7272 47.4224ZM29.1283 55.1929C24.6 54.6189 20.6988 49.5591 18.5941 42.3095C21.8469 40.6618 25.4398 39.737 29.1283 39.5988V55.1929ZM29.1283 37.8661C25.2803 37.9937 21.5386 38.9398 18.1476 40.598C17.4354 37.6217 17.0102 34.337 16.9465 30.8717H29.1283V37.8661ZM29.1283 29.1283H16.9465C17.0102 25.663 17.4354 22.3783 18.1476 19.402C21.5492 21.0602 25.2909 22.0063 29.1283 22.1339V29.1283ZM29.1283 20.4012C25.4291 20.2736 21.8469 19.3382 18.5941 17.6906C20.6988 10.4303 24.6 5.3811 29.1283 4.80709V20.4012ZM49.4315 13.885C53.0032 18.1795 55.0441 23.5264 55.2354 29.1283H44.7969C44.7331 25.3654 44.2441 21.8043 43.415 18.5835C45.6154 17.3185 47.6457 15.7453 49.4315 13.885ZM48.2728 12.5776C46.6783 14.2465 44.8819 15.6815 42.926 16.8402C41.4165 11.9185 39.078 7.94291 36.261 5.52992C40.8106 6.70984 44.9776 9.13346 48.2728 12.5776ZM30.8717 4.80709C35.4 5.3811 39.3012 10.4409 41.4059 17.6906C38.1532 19.3382 34.5709 20.263 30.8717 20.4012V4.80709ZM30.8717 22.1339C34.7197 22.0063 38.4614 21.0602 41.8524 19.402C42.5646 22.3783 42.9898 25.663 43.0535 29.1283H30.8717V22.1339ZM30.8717 30.8717H43.0535C42.9898 34.337 42.5646 37.6217 41.8524 40.598C38.4614 38.9291 34.7197 37.9831 30.8717 37.8661V30.8717ZM30.8717 55.1929V39.5988C34.5709 39.7264 38.1532 40.6618 41.4059 42.3095C39.3012 49.5697 35.4 54.6189 30.8717 55.1929ZM36.261 54.4594C39.078 52.0571 41.4165 48.0815 42.926 43.1492C44.8819 44.3079 46.6783 45.7429 48.2728 47.4118C44.9776 50.8665 40.8106 53.2902 36.261 54.4594ZM49.4315 46.115C47.6457 44.2547 45.6154 42.6815 43.415 41.4165C44.2441 38.1957 44.7331 34.624 44.7969 30.8717H55.2354C55.0441 36.4736 53.0032 41.8205 49.4315 46.115Z" fill="white" stroke="white" stroke-width="0.3"></path> </svg> 