<?xml version="1.0" encoding="UTF-8"?> <svg xmlns="http://www.w3.org/2000/svg" width="60" height="60" viewBox="0 0 60 60" fill="none"> <path d="M41.9565 45.3125C41.3565 45.3125 40.8696 45.8025 40.8696 46.4062C40.8696 47.01 41.3565 47.5 41.9565 47.5C42.5565 47.5 43.0435 47.01 43.0435 46.4062C43.0435 45.8025 42.5565 45.3125 41.9565 45.3125Z" fill="white"></path> <path d="M44.6328 41.7756L39.4665 40.0431L37.6118 36.3105C39.2827 34.5992 40.4428 32.3349 40.834 29.9732L41.0653 28.5781H43.0435C44.8415 28.5781 46.3043 27.1062 46.3043 25.2969V18.4062C46.3043 9.35984 38.9902 2 30 2C20.9867 2 13.6957 9.33873 13.6957 18.4062V25.2969C13.6957 26.7227 14.6045 27.9385 15.8696 28.39V29.6719C15.8696 31.4812 17.3324 32.9531 19.1304 32.9531H20.085C20.5562 33.9831 21.1661 34.9371 21.9083 35.794C22.0622 35.9721 22.2227 36.1447 22.3872 36.3126L20.5335 40.0431L15.3671 41.7758C9.36 43.7913 5 50.1546 5 56.9062C5 57.5103 5.48663 58 6.08696 58H53.913C54.5133 58 55 57.5103 55 56.9062C55 50.1546 50.6401 43.7913 44.6328 41.7756ZM44.1304 25.2969C44.1304 25.9 43.6428 26.3906 43.0435 26.3906H41.3846C41.6609 24.237 41.845 21.9453 41.919 19.6881C41.9212 19.6245 41.9229 19.5626 41.9249 19.5H44.1304V25.2969ZM16.9565 26.3906C16.3572 26.3906 15.8696 25.9 15.8696 25.2969V19.5H18.0759C18.0795 19.6141 18.0833 19.7287 18.0875 19.8441C18.0876 19.848 18.0878 19.8519 18.0879 19.8558C18.0879 19.8561 18.0879 19.8565 18.0879 19.8568C18.164 22.0522 18.3458 24.2844 18.6158 26.3905H16.9565V26.3906ZM19.1304 30.7656C18.5311 30.7656 18.0435 30.275 18.0435 29.6719V28.5781H18.9346L19.1659 29.9736C19.21 30.2389 19.2642 30.5031 19.327 30.7656H19.1304ZM18.0453 17.3125H15.9109C16.4614 9.98208 22.541 4.1875 30 4.1875C37.4259 4.1875 43.5322 9.98131 44.089 17.3125H41.9548C41.8765 11.272 36.9881 6.375 30.9729 6.375H29.0273C23.0122 6.375 18.1235 11.272 18.0453 17.3125ZM29.0272 8.5625H30.9728C35.8434 8.5625 39.7854 12.5712 39.7826 17.4667C39.7826 17.8109 39.7799 18.1106 39.7741 18.3833C39.7741 18.3868 39.774 18.3904 39.774 18.394L38.4145 18.1985C34.721 17.6679 31.2336 15.9133 28.5947 13.2579C28.3908 13.0528 28.1143 12.9375 27.8261 12.9375C24.907 12.9375 22.1126 14.2758 20.2654 16.5368C20.7207 12.0832 24.4623 8.5625 29.0272 8.5625ZM21.5804 30.7656C21.0363 28.9442 20.4137 23.5848 20.2761 20.1505L21.739 18.1876C23.0826 16.3855 25.1729 15.2659 27.3965 15.1374C30.3223 17.9391 34.1073 19.7893 38.1071 20.364L39.7073 20.5941C39.6003 22.8784 39.3817 25.1707 39.0686 27.2789C39.0685 27.2795 39.0684 27.2803 39.0683 27.281C38.9687 27.9588 38.8902 28.395 38.6898 29.6134C38.1141 33.0877 35.5378 36.2295 32.1368 37.0851C30.7372 37.4367 29.2626 37.4366 27.8637 37.0851C25.7401 36.5509 23.7929 35.0724 22.5363 32.9531H24.7522C25.2009 34.2261 26.409 35.1406 27.8261 35.1406H30C31.8016 35.1406 33.2609 33.6724 33.2609 31.8594C33.2609 30.0501 31.798 28.5781 30 28.5781H27.8261C26.3775 28.5781 25.1872 29.5196 24.7503 30.7656H21.5804ZM27.7347 39.2986C28.4802 39.4567 29.2403 39.5375 30 39.5375C30.5947 39.5375 31.1895 39.4874 31.7775 39.3903L29.8568 41.4342L27.7347 39.2986ZM28.3625 43.0243L24.9149 46.6929C23.9658 44.8648 23.1502 42.9623 22.4813 41.0145L23.776 38.409L28.3625 43.0243ZM36.0398 38.0384L37.5185 41.0144C36.8485 42.9654 36.0327 44.8687 35.0846 46.6946L31.3946 42.9815L36.0398 38.0384ZM26.7391 31.8594C26.7391 31.2555 27.2259 30.7656 27.8261 30.7656H30C30.5993 30.7656 31.087 31.2563 31.087 31.8594C31.087 32.4633 30.6001 32.9531 30 32.9531H27.8261C27.2267 32.9531 26.7391 32.4625 26.7391 31.8594ZM7.21739 55.8125C7.64815 50.3942 11.2317 45.4692 16.0546 43.8509L20.63 42.3166C21.4683 44.649 22.5067 46.916 23.7238 49.0694C23.7259 49.0731 23.7278 49.0769 23.7299 49.0805L23.73 49.0807C24.6192 50.6545 25.6201 52.1924 26.7052 53.6525L28.0424 55.8125H7.21739ZM30 54.8375L28.5259 52.4561C28.5093 52.4294 28.4917 52.4035 28.473 52.3783C27.5928 51.1969 26.7717 49.9613 26.0239 48.6966L29.9003 44.5716L33.9849 48.6817C33.2321 49.9556 32.4081 51.1963 31.5272 52.3781C31.4739 52.4495 31.5495 52.337 30 54.8375ZM31.9576 55.8125L33.2947 53.6526C34.3846 52.1869 35.3926 50.6367 36.2908 49.0444C36.2962 49.0347 36.3013 49.0249 36.3067 49.0153C36.3074 49.0141 36.308 49.013 36.3087 49.0118C37.5103 46.879 38.5379 44.6316 39.37 42.3166L43.9453 43.8509C48.7683 45.4692 52.3518 50.3942 52.7826 55.8125H31.9576Z" fill="white"></path> <path d="M49.5159 51.3862C48.7895 49.9231 47.7254 48.6233 46.4388 47.6273C45.9629 47.2588 45.2805 47.3484 44.9146 47.8273C44.5485 48.3061 44.6375 48.9927 45.1133 49.3611C46.1409 50.1566 46.9907 51.1949 47.571 52.3638C47.8398 52.9051 48.493 53.123 49.0291 52.8535C49.5661 52.5835 49.784 51.9266 49.5159 51.3862Z" fill="white"></path> </svg> 