<?xml version="1.0" encoding="UTF-8"?> <svg xmlns="http://www.w3.org/2000/svg" width="60" height="60" viewBox="0 0 60 60" fill="none"> <path d="M8.62386 44.4077C8.56746 44.4077 8.50987 44.404 8.45107 44.3953C5.70915 43.9849 3.07883 43.0932 0.63571 41.7439C0.0513285 41.4206 -0.170664 40.6669 0.141326 40.0601C0.454516 39.4557 1.17809 39.2256 1.76608 39.5477C3.96201 40.7627 6.32713 41.5636 8.79306 41.9317C9.44944 42.0299 9.90422 42.6605 9.81063 43.3407C9.72423 43.9613 9.21065 44.4077 8.62386 44.4077Z" fill="white"></path> <path d="M51.3761 44.4077C50.7894 44.4077 50.2758 43.9613 50.1894 43.3419C50.0958 42.6617 50.5506 42.0312 51.2069 41.9329C53.6741 41.5648 56.038 40.7639 58.2339 39.5489C58.8231 39.2268 59.5455 39.4569 59.8587 40.0613C60.1707 40.6669 59.9487 41.4218 59.3643 41.7451C56.9212 43.0945 54.2909 43.9861 51.5489 44.3965C51.4901 44.404 51.4325 44.4077 51.3761 44.4077Z" fill="white"></path> <path d="M38.8245 30.3105C38.5989 30.3105 38.3721 30.2445 38.1705 30.109C37.615 29.7334 37.4578 28.9636 37.8202 28.3878C39.5205 25.6855 42.3932 24.0712 45.5059 24.0712C46.1695 24.0712 46.7059 24.6271 46.7059 25.3149C46.7059 26.0026 46.1695 26.5585 45.5059 26.5585C43.2068 26.5585 41.0853 27.7499 39.8313 29.7459C39.6021 30.1115 39.2181 30.3105 38.8245 30.3105Z" fill="white"></path> <path d="M48.1662 26.5585C43.9124 26.5585 40.3197 22.8351 40.3197 18.4277C40.3197 14.0203 43.9124 10.297 48.1662 10.297C52.4189 10.297 56.0116 14.0203 56.0116 18.4277C56.0116 22.8351 52.4189 26.5585 48.1662 26.5585ZM48.1662 12.7842C45.2143 12.7842 42.7196 15.3684 42.7196 18.4277C42.7196 21.487 45.2143 24.0712 48.1662 24.0712C51.1181 24.0712 53.6117 21.487 53.6117 18.4277C53.6117 15.3684 51.1181 12.7842 48.1662 12.7842Z" fill="white"></path> <path d="M58.7991 37.7581C58.1355 37.7581 57.5991 37.2022 57.5991 36.5145C57.5991 32.6431 54.5596 26.5597 50.8242 26.5597C50.1606 26.5597 49.6242 26.0038 49.6242 25.3161C49.6242 24.6284 50.1606 24.0725 50.8242 24.0725C55.8832 24.0725 59.9991 31.2727 59.9991 36.5145C59.9991 37.201 59.4627 37.7581 58.7991 37.7581Z" fill="white"></path> <path d="M50.8242 26.5585H45.5071C44.8435 26.5585 44.3072 26.0026 44.3072 25.3149C44.3072 24.6271 44.8435 24.0712 45.5071 24.0712H50.8242C51.4877 24.0712 52.0241 24.6271 52.0241 25.3149C52.0241 26.0026 51.4865 26.5585 50.8242 26.5585Z" fill="white"></path> <path d="M58.7991 41.8907C58.1355 41.8907 57.5991 41.3348 57.5991 40.647V36.5145C57.5991 35.8268 58.1355 32.3376 58.7991 32.3376C59.4627 32.3376 59.9991 35.8268 59.9991 36.5145V40.647C59.9991 41.3348 59.4627 41.8907 58.7991 41.8907Z" fill="white"></path> <path d="M15.8224 42.8084C15.1589 42.8084 14.6225 42.2525 14.6225 41.5648C14.6225 34.802 19.9311 26.3682 26.4553 26.3682C27.1189 26.3682 27.6553 26.9241 27.6553 27.6118C27.6553 28.2995 27.1189 28.8554 26.4553 28.8554C21.2535 28.8554 17.0224 36.1737 17.0224 41.5648C17.0224 42.2525 16.4848 42.8084 15.8224 42.8084Z" fill="white"></path> <path d="M33.5447 28.8554H26.4553C25.7917 28.8554 25.2554 28.2995 25.2554 27.6118C25.2554 26.9241 25.7917 26.3682 26.4553 26.3682H33.5447C34.2083 26.3682 34.7447 26.9241 34.7447 27.6118C34.7447 28.2995 34.2083 28.8554 33.5447 28.8554Z" fill="white"></path> <path d="M21.1755 30.3105C20.7831 30.3105 20.3991 30.1115 20.1687 29.7459C18.9135 27.7511 16.7932 26.5585 14.4941 26.5585C13.8305 26.5585 13.2941 26.0026 13.2941 25.3149C13.2941 24.6271 13.8305 24.0712 14.4941 24.0712C17.608 24.0712 20.4795 25.6855 22.1798 28.3878C22.5422 28.9636 22.385 29.7334 21.8295 30.109C21.6267 30.2445 21.3999 30.3105 21.1755 30.3105Z" fill="white"></path> <path d="M15.8224 48.3189C15.1589 48.3189 14.6225 47.763 14.6225 47.0753V41.5648C14.6225 40.8771 15.1589 40.3212 15.8224 40.3212C16.486 40.3212 17.0224 40.8771 17.0224 41.5648V47.0753C17.0224 47.763 16.4848 48.3189 15.8224 48.3189Z" fill="white"></path> <path d="M30 28.8554C24.5462 28.8554 19.9383 24.0799 19.9383 18.4277C19.9383 12.7755 24.5462 8 30 8C35.4538 8 40.0617 12.7755 40.0617 18.4277C40.0617 24.0799 35.4538 28.8554 30 28.8554ZM30 10.4872C25.8469 10.4872 22.3382 14.1236 22.3382 18.4277C22.3382 22.7319 25.8469 26.3682 30 26.3682C34.1531 26.3682 37.6618 22.7319 37.6618 18.4277C37.6618 14.1236 34.1531 10.4872 30 10.4872Z" fill="white"></path> <path d="M44.1776 42.8084C43.514 42.8084 42.9776 42.2525 42.9776 41.5648C42.9776 36.1737 38.7465 28.8554 33.5447 28.8554C32.8811 28.8554 32.3447 28.2995 32.3447 27.6118C32.3447 26.9241 32.8811 26.3682 33.5447 26.3682C40.0701 26.3682 45.3775 34.8033 45.3775 41.5648C45.3775 42.2525 44.8411 42.8084 44.1776 42.8084Z" fill="white"></path> <path d="M44.1776 48.3189C43.514 48.3189 42.9776 47.763 42.9776 47.0753V41.5648C42.9776 40.8771 43.514 40.3212 44.1776 40.3212C44.8411 40.3212 45.3775 40.8771 45.3775 41.5648V47.0753C45.3775 47.763 44.8411 48.3189 44.1776 48.3189Z" fill="white"></path> <path d="M30 52C24.9362 52 19.8735 50.724 15.2573 48.1734C14.6729 47.8488 14.4509 47.0964 14.7629 46.4895C15.0761 45.8851 15.7984 45.6551 16.3876 45.9772C24.9122 50.6892 35.0902 50.6892 43.6136 45.9772C44.2016 45.6551 44.9263 45.8851 45.2383 46.4895C45.5503 47.0952 45.3283 47.8488 44.7439 48.1734C40.1265 50.7228 35.0638 52 30 52Z" fill="white"></path> <path d="M11.8338 26.5585C7.5811 26.5585 3.98841 22.8351 3.98841 18.4277C3.98841 14.0203 7.5811 10.297 11.8338 10.297C16.0864 10.297 19.6791 14.0203 19.6791 18.4277C19.6791 22.8351 16.0864 26.5585 11.8338 26.5585ZM11.8338 12.7842C8.88186 12.7842 6.38833 15.3684 6.38833 18.4277C6.38833 21.487 8.88186 24.0712 11.8338 24.0712C14.7857 24.0712 17.2792 21.487 17.2792 18.4277C17.2792 15.3684 14.7857 12.7842 11.8338 12.7842Z" fill="white"></path> <path d="M1.20089 37.7581C0.537314 37.7581 0.000930356 37.2022 0.000930356 36.5145C0.000930356 31.2714 4.118 24.0725 9.17585 24.0725C9.83943 24.0725 10.3758 24.6284 10.3758 25.3161C10.3758 26.0038 9.83943 26.5597 9.17585 26.5597C5.44036 26.5585 2.40086 32.6419 2.40086 36.5145C2.40086 37.201 1.86447 37.7581 1.20089 37.7581Z" fill="white"></path> <path d="M14.4929 26.5585H9.17585C8.51227 26.5585 7.97588 26.0026 7.97588 25.3149C7.97588 24.6271 8.51227 24.0712 9.17585 24.0712H14.4929C15.1565 24.0712 15.6928 24.6271 15.6928 25.3149C15.6928 26.0026 15.1565 26.5585 14.4929 26.5585Z" fill="white"></path> <path d="M1.20089 41.8907C0.537314 41.8907 0.000930356 41.3348 0.000930356 40.647V36.5145C0.000930356 35.8268 0.537314 35.2709 1.20089 35.2709C1.86447 35.2709 2.40086 35.8268 2.40086 36.5145V40.647C2.40086 41.3348 1.86447 41.8907 1.20089 41.8907Z" fill="white"></path> </svg> 