<?xml version="1.0" encoding="UTF-8"?> <svg xmlns="http://www.w3.org/2000/svg" width="60" height="60" viewBox="0 0 60 60" fill="none"> <path d="M25.1863 51.4523L25.0277 52.2307L25.1806 51.4514C24.7521 51.3666 24.336 51.6468 24.2515 52.0772C24.1671 52.508 24.446 52.9256 24.8749 53.0104C24.8761 53.0108 24.8881 53.0129 24.8893 53.0133C24.9396 53.0228 24.9894 53.0278 25.0388 53.0278C25.4109 53.0278 25.7425 52.7629 25.8146 52.3822C25.897 51.951 25.6156 51.5346 25.1863 51.4523Z" fill="white"></path> <path d="M31.2343 51.7076L31.313 52.4981L31.2318 51.708C30.7972 51.7527 30.4812 52.143 30.5261 52.5796C30.5677 52.9885 30.9113 53.2931 31.3118 53.2931C31.339 53.2931 31.3666 53.2914 31.3938 53.289L31.4156 53.2865C31.8482 53.2356 32.1551 52.8436 32.1069 52.4091C32.0583 51.975 31.6669 51.6621 31.2343 51.7076Z" fill="white"></path> <path d="M28.2062 51.8078C28.2062 51.8078 28.1951 51.8073 28.1947 51.8073C27.7588 51.7875 27.3946 52.1277 27.3748 52.5659C27.3555 53.0042 27.6982 53.3754 28.1345 53.3953C28.1469 53.3961 28.1588 53.3961 28.1712 53.3961C28.5914 53.3961 28.9416 53.0638 28.9606 52.6375C28.9803 52.1993 28.6429 51.8276 28.2062 51.8078Z" fill="white"></path> <path d="M22.2645 50.6448L22.2546 50.6411C21.8435 50.4929 21.3952 50.709 21.2477 51.122C21.0998 51.535 21.3182 51.9919 21.7294 52.1405C21.8179 52.1724 21.9082 52.1873 21.9967 52.1873C22.321 52.1873 22.6254 51.9857 22.7412 51.6613C22.8891 51.2482 22.6757 50.793 22.2645 50.6448Z" fill="white"></path> <path d="M34.2196 51.1514L34.4144 51.9216L34.2171 51.1522C33.794 51.2615 33.5394 51.6948 33.6481 52.1198C33.74 52.4782 34.0614 52.7166 34.4136 52.7166C34.4791 52.7166 34.5455 52.7083 34.6118 52.6909C34.6151 52.6901 34.6291 52.6864 34.6328 52.6856C35.0526 52.5705 35.2982 52.1372 35.1861 51.7146C35.074 51.2925 34.641 51.0413 34.2196 51.1514Z" fill="white"></path> <path d="M37.0792 50.1494L37.3927 50.8787L37.0767 50.1503C36.6763 50.3257 36.4929 50.7938 36.6672 51.1961C36.797 51.4953 37.0878 51.6737 37.3931 51.6737C37.4982 51.6737 37.6057 51.6522 37.7083 51.6075C37.7116 51.6058 37.7244 51.6004 37.7276 51.5988C38.1244 51.4187 38.2995 50.9519 38.1223 50.5525C37.9452 50.1528 37.478 49.9736 37.0792 50.1494Z" fill="white"></path> <path d="M19.243 13.9272C19.3699 13.9272 19.4989 13.8965 19.6179 13.8328C20.0035 13.6263 20.149 13.145 19.9434 12.7576C19.7378 12.3706 19.2591 12.2237 18.8735 12.4307L18.864 12.4356C18.4788 12.6421 18.3375 13.121 18.543 13.5083C18.6848 13.7757 18.96 13.9272 19.243 13.9272Z" fill="white"></path> <path d="M10.0932 22.8023C10.2106 22.864 10.3363 22.8933 10.4603 22.8933C10.7449 22.8933 11.0202 22.7386 11.1615 22.4675L11.1755 22.4397C11.3683 22.0458 11.2068 21.5694 10.8146 21.3761C10.4252 21.1833 9.95476 21.3422 9.75948 21.7308C9.5576 22.119 9.70674 22.5987 10.0932 22.8023Z" fill="white"></path> <path d="M8.97958 25.7916C9.06363 25.8201 9.14891 25.8338 9.23337 25.8338C9.56296 25.8338 9.87071 25.6248 9.98236 25.2937L9.99266 25.2622C10.1212 24.843 9.88678 24.3981 9.46902 24.2694C9.05498 24.1411 8.61539 24.372 8.48314 24.7859C8.3443 25.201 8.56636 25.6513 8.97958 25.7916Z" fill="white"></path> <path d="M11.6538 20.0224C11.7943 20.1251 11.957 20.1747 12.1185 20.1747C12.3628 20.1747 12.6042 20.0609 12.7587 19.8474L12.769 19.8333C13.0228 19.4765 12.94 18.9816 12.5857 18.7266C12.231 18.4713 11.7366 18.5532 11.482 18.9091L12.1193 19.3801L11.4795 18.9125C11.2224 19.2675 11.3007 19.7646 11.6538 20.0224Z" fill="white"></path> <path d="M16.5577 15.6434C16.7237 15.6434 16.891 15.5909 17.0339 15.4816C17.3866 15.2225 17.4628 14.7255 17.2049 14.3712C16.9466 14.017 16.4518 13.9404 16.0995 14.1995L16.0798 14.214C15.7321 14.4792 15.6628 14.9788 15.9269 15.3285C16.0827 15.5346 16.3187 15.6434 16.5577 15.6434Z" fill="white"></path> <path d="M8.27344 37.8422C8.37808 38.1836 8.69037 38.4026 9.0282 38.4026C9.10524 38.4026 9.18393 38.391 9.26138 38.367C9.67667 38.2391 9.91109 37.7971 9.78667 37.3791C9.6676 36.9619 9.23708 36.7169 8.81809 36.8316C8.39662 36.947 8.14819 37.3841 8.26314 37.8074C8.26561 37.8157 8.27097 37.8339 8.27344 37.8422Z" fill="white"></path> <path d="M14.1682 17.7375C14.3737 17.7375 14.5793 17.6576 14.7346 17.4987C15.0432 17.1883 15.0432 16.6851 14.7346 16.3751C14.4256 16.0647 13.9247 16.0647 13.6157 16.3751L13.6025 16.3884C13.2968 16.7016 13.303 17.2041 13.6149 17.5111C13.7685 17.6626 13.9683 17.7375 14.1682 17.7375Z" fill="white"></path> <path d="M9.14767 34.3778C9.09206 33.9462 8.69943 33.6399 8.26932 33.6912C7.83591 33.7434 7.52609 34.1386 7.57759 34.5744L7.58212 34.6063C7.6398 35.0011 7.97722 35.2842 8.36325 35.2842C8.40115 35.2842 8.43988 35.2813 8.47902 35.2755C8.90955 35.2126 9.20824 34.8103 9.14767 34.3778Z" fill="white"></path> <path d="M8.15396 32.102C8.1622 32.102 8.17003 32.1024 8.17786 32.1024C8.60385 32.1024 8.95569 31.7618 8.96805 31.331L8.96887 31.2971C8.96887 30.858 8.61456 30.5025 8.17786 30.5025C7.74403 30.5025 7.3922 30.8526 7.38684 31.2867C7.37531 31.7246 7.71849 32.0892 8.15396 32.102Z" fill="white"></path> <path d="M8.32741 28.9153C8.37479 28.9236 8.42134 28.9278 8.4679 28.9278C8.84363 28.9278 9.17693 28.6575 9.24573 28.273C9.24779 28.2615 9.24944 28.2499 9.25108 28.2383C9.31494 27.8041 9.01625 27.4002 8.58366 27.3365C8.15643 27.2728 7.75639 27.5678 7.68759 27.9958C7.61261 28.427 7.89853 28.838 8.32741 28.9153Z" fill="white"></path> <path d="M45.6411 20.2732C45.7944 20.4967 46.0407 20.6163 46.292 20.6163C46.4465 20.6163 46.6031 20.5708 46.7399 20.476C47.0995 20.2277 47.1906 19.7327 46.9434 19.371L46.2859 19.813L46.9409 19.3673C46.6954 19.0039 46.2035 18.9091 45.8421 19.1554C45.4804 19.4016 45.3861 19.8958 45.6312 20.2591L45.6411 20.2732Z" fill="white"></path> <path d="M49.6806 28.2693C49.2464 28.3182 48.9341 28.7117 48.9831 29.1479L48.9873 29.1823C49.0437 29.5783 49.3824 29.8643 49.7696 29.8643C49.8067 29.8643 49.8446 29.8618 49.8825 29.8565C50.3114 29.7948 50.6105 29.3979 50.5549 28.9675C50.505 28.5325 50.112 28.2205 49.6806 28.2693Z" fill="white"></path> <path d="M48.3458 26.027L48.3491 26.0374C48.4504 26.3838 48.7656 26.6081 49.1076 26.6081C49.1813 26.6081 49.2563 26.5978 49.3309 26.5754C49.7503 26.4517 49.99 26.0101 49.8669 25.5888L49.8636 25.5784C49.7404 25.1571 49.3008 24.9163 48.8814 25.0404C48.4624 25.1642 48.2226 25.6057 48.3458 26.027Z" fill="white"></path> <path d="M47.2285 23.056C47.3665 23.3378 47.6487 23.5021 47.9421 23.5021C48.0586 23.5021 48.1773 23.476 48.2889 23.4206C48.6807 23.2269 48.8435 22.7535 48.6503 22.3595L47.9334 22.6951L48.6494 22.3578C48.464 21.9605 47.9931 21.7896 47.5976 21.9758C47.2021 22.1621 47.0316 22.6351 47.2169 23.0324L47.2285 23.056Z" fill="white"></path> <path d="M43.6487 17.7917C43.8036 17.9507 44.0084 18.0301 44.2136 18.0301C44.4134 18.0301 44.6132 17.9548 44.7673 17.8029C45.0771 17.4983 45.0841 17.0004 44.7854 16.6867C44.4892 16.366 43.9899 16.3466 43.6693 16.6437C43.3484 16.9413 43.3286 17.4441 43.6248 17.7665L43.6487 17.7917Z" fill="white"></path> <path d="M49.9377 31.5872C49.5031 31.576 49.1393 31.9183 49.124 32.3549C49.1043 32.7899 49.4367 33.1603 49.8701 33.1847C49.8854 33.1855 49.8998 33.1859 49.9151 33.1859C50.3316 33.1859 50.6805 32.8586 50.704 32.4352L50.7052 32.4025C50.7176 31.9642 50.374 31.6 49.9377 31.5872Z" fill="white"></path> <path d="M38.5903 13.8899L38.6093 13.9003C38.7271 13.9632 38.8536 13.993 38.978 13.993C39.2594 13.993 39.5317 13.8407 39.6747 13.5737C39.8807 13.1884 39.7357 12.7067 39.3533 12.4981L38.9706 13.1934L39.3509 12.4965C38.9677 12.2854 38.4869 12.4265 38.2768 12.8114C38.0671 13.1959 38.2072 13.6793 38.5903 13.8899Z" fill="white"></path> <path d="M41.2658 15.6327L41.2782 15.6422C41.4211 15.751 41.5888 15.8036 41.7556 15.8036C41.9946 15.8036 42.2307 15.6951 42.3864 15.489C42.6505 15.1393 42.5821 14.6411 42.2344 14.3758L42.229 14.372C41.8825 14.1047 41.3861 14.1701 41.12 14.5181C40.8538 14.8662 40.9193 15.3653 41.2658 15.6327Z" fill="white"></path> <path d="M56.5118 43.6167L52.7986 39.88C52.4826 39.5622 52.0627 39.3871 51.6157 39.3871C51.1691 39.3871 50.7489 39.5622 50.4333 39.88L50.3472 39.9665L50.1033 39.7215C49.8022 39.4182 49.569 39.0652 49.4108 38.6807C49.3968 38.6298 49.3782 38.5801 49.3543 38.5333C49.2332 38.1915 49.1702 37.8277 49.1702 37.454V36.397C49.2423 36.4351 49.321 36.4628 49.4054 36.4773C49.4507 36.4852 49.4957 36.4889 49.5401 36.4889C49.9155 36.4889 50.2475 36.2199 50.3172 35.8375C50.4016 35.4079 50.1243 34.9903 49.6963 34.9042C49.508 34.8666 49.3218 34.8993 49.1652 34.9845C49.1166 33.8555 48.6573 32.801 47.858 31.9965L44.2556 28.3715C43.4473 27.5583 42.3724 27.1105 41.2291 27.1105C40.3442 27.1105 39.5013 27.3799 38.7902 27.8786L38.4078 27.4925V18.4042C38.4078 17.3088 38.0119 16.2518 37.2934 15.4286C36.7821 14.8434 36.5007 14.0919 36.5007 13.3122V12.6463H36.5551C37.4772 12.6463 38.2274 11.8926 38.2274 10.966V5.68025C38.2274 4.75363 37.4772 4 36.5551 4H21.7792C20.8572 4 20.1069 4.75363 20.1069 5.68025V10.966C20.1069 11.8926 20.8572 12.6463 21.7792 12.6463H21.9012V12.9947C21.9012 13.8514 21.5695 14.6568 20.9676 15.2623L19.3728 16.8672C18.5266 17.7189 18.0606 18.8508 18.0606 20.0551V25.1815C18.0606 25.8781 18.2271 26.5357 18.52 27.1184C17.4711 27.1792 16.4934 27.6183 15.7444 28.3715L12.142 31.9965C11.2958 32.8482 10.8298 33.9805 10.8298 35.1844V37.454C10.8298 38.3107 10.4986 39.1161 9.89667 39.7215L9.65566 39.964C9.65442 39.9649 9.6536 39.9657 9.65277 39.9665L9.56708 39.88C9.25108 39.5622 8.83127 39.3871 8.38426 39.3871C7.93767 39.3871 7.51744 39.5622 7.20186 39.88L3.4882 43.6167C2.83727 44.2719 2.83727 45.338 3.4882 45.9931L4.76001 47.2723C5.06859 47.5831 5.56956 47.5835 5.87856 47.2736C6.18755 46.9632 6.18837 46.4603 5.87938 46.1495L4.60799 44.8699C4.57214 44.8339 4.57214 44.7755 4.60799 44.7395L8.32164 41.0028C8.35625 40.9681 8.41269 40.9676 8.4473 41.0028L9.09288 41.6526H9.09329L18.8961 51.5172C18.932 51.5532 18.932 51.6116 18.8961 51.6476L15.1829 55.3843C15.1479 55.4195 15.0914 55.4195 15.0568 55.3843L8.11894 48.403C7.81036 48.0922 7.30939 48.0918 7.0004 48.4017C6.69099 48.7121 6.69058 49.215 6.99916 49.5258L13.9374 56.5071C14.253 56.8249 14.6732 57 15.1203 57C15.5668 57 15.9867 56.8249 16.3027 56.5071L20.0159 52.7704C20.6668 52.1157 20.6668 51.0496 20.0159 50.3944L19.9755 50.3539L20.444 49.8825C20.9911 49.3317 21.7178 49.0006 22.4903 48.9505C23.5775 48.8797 24.6005 48.4137 25.3705 47.6386L28.7818 44.2044C29.7656 43.9449 30.5315 43.14 30.7395 42.1318C31.0901 42.2994 31.4819 42.3938 31.8956 42.3938C33.3832 42.3938 34.5937 41.1766 34.5937 39.6801V37.7934C34.934 37.9494 35.3118 38.0371 35.7097 38.0371C37.1974 38.0371 38.4074 36.82 38.4074 35.3235V29.7455L40.8406 32.2018C40.9951 32.3578 41.1982 32.4356 41.4013 32.4356C41.6032 32.4356 41.8051 32.3586 41.9596 32.2043C42.269 31.8947 42.2702 31.3919 41.9621 31.0806L39.9334 29.0329C40.3261 28.8156 40.7685 28.6997 41.2291 28.6997C41.9493 28.6997 42.6266 28.982 43.1358 29.4947L46.7382 33.1193C47.2862 33.671 47.5881 34.4043 47.5881 35.1844V37.454C47.5881 38.7349 48.0838 39.9388 48.9836 40.8443L49.2291 41.0914L41.1422 49.229L40.7553 48.8396C40.7512 48.8359 40.7475 48.8317 40.7434 48.828L40.6754 48.7593C39.8564 47.9353 38.7683 47.4399 37.6123 47.3646C36.909 47.3187 36.2474 47.0174 35.7468 46.5141L33.1476 43.9172C32.8378 43.6076 32.3368 43.6089 32.0286 43.9201C31.7209 44.2313 31.7221 44.7346 32.0319 45.0437L34.6295 47.6386C35.3995 48.4137 36.4225 48.8797 37.5101 48.9505C38.2822 49.0006 39.0089 49.3317 39.556 49.8821L39.5944 49.9206C39.615 49.9442 39.6368 49.9661 39.6599 49.9868L40.0245 50.3535L39.9841 50.3944C39.3332 51.0496 39.3332 52.1153 39.9841 52.7704L43.6973 56.5071C44.0133 56.8249 44.4332 57 44.8802 57C45.3268 57 45.747 56.8249 46.063 56.5071L56.5118 45.9927C57.1627 45.3375 57.1627 44.2719 56.5118 43.6167ZM49.7004 35.7154L49.6856 35.7129L49.5414 35.6835L49.7004 35.7154ZM24.2507 46.5158C23.7526 47.0174 23.091 47.3187 22.3881 47.3646C21.2317 47.4399 20.1436 47.9353 19.3246 48.7593L18.8578 49.229L18.4376 48.8061C18.4322 48.8007 18.4269 48.7949 18.4215 48.7899L10.7709 41.0914L11.0164 40.8443C11.9162 39.9388 12.4119 38.7349 12.4119 37.454V35.1844C12.4119 34.4043 12.7134 33.671 13.2618 33.1193L16.8642 29.4947C17.3734 28.982 18.0507 28.6997 18.7709 28.6997C19.2327 28.6997 19.6768 28.8164 20.0707 29.0354L18.0388 31.0798C17.7302 31.3902 17.7306 31.8935 18.0396 32.2034C18.1941 32.3582 18.3964 32.4356 18.5987 32.4356C18.8014 32.4356 19.0041 32.3578 19.1586 32.2026L21.5856 29.76V39.6801C21.5856 41.1766 22.796 42.3938 24.2837 42.3938C24.7031 42.3938 25.1002 42.2969 25.4545 42.1248C25.6152 42.9124 26.1162 43.5762 26.7952 43.9544L24.2507 46.5158ZM36.8258 35.3239C36.8258 35.9439 36.3248 36.4483 35.7097 36.4483C35.0942 36.4483 34.5937 35.9439 34.5937 35.3239V26.4604C34.5937 26.0217 34.2398 25.6658 33.8026 25.6658C33.3655 25.6658 33.0116 26.0217 33.0116 26.4604V39.6806C33.0116 40.3005 32.5111 40.8046 31.8956 40.8046C31.3431 40.8046 30.8845 40.3982 30.796 39.8664V26.4513C30.796 26.0121 30.4421 25.6566 30.0049 25.6566C29.8645 25.6566 29.7322 25.6939 29.6177 25.7585C29.3676 25.8921 29.1974 26.1562 29.1974 26.4604V39.6801C29.1974 39.7811 29.2032 39.88 29.2139 39.9781V41.5793C29.2139 42.1993 28.7134 42.7038 28.0979 42.7038C27.4828 42.7038 26.9822 42.1993 26.9822 41.5793V26.4417C26.9822 26.003 26.6279 25.6471 26.1912 25.6471C25.7541 25.6471 25.3997 26.003 25.3997 26.4417V39.6801C25.3997 40.3001 24.8992 40.8046 24.2841 40.8046C23.6686 40.8046 23.168 40.3001 23.168 39.6801V24.8993C23.168 24.4602 22.8137 24.1043 22.377 24.1043C21.9399 24.1043 21.586 24.4602 21.586 24.8993V27.6332C21.5197 27.6547 21.4554 27.685 21.3956 27.7247C20.3727 27.3386 19.6426 26.3445 19.6426 25.1815V20.0551C19.6426 19.275 19.9446 18.5416 20.4926 17.99L22.0874 16.385C22.9876 15.4795 23.4832 14.2756 23.4832 12.9947V12.6463H25.0735C25.5106 12.6463 25.8645 12.2904 25.8645 11.8517C25.8645 11.4126 25.5106 11.0571 25.0735 11.0571H21.7792C21.7294 11.0571 21.689 11.0161 21.689 10.966V5.68025C21.689 5.63018 21.7294 5.58921 21.7792 5.58921H36.5547C36.605 5.58921 36.6454 5.63018 36.6454 5.68025V10.966C36.6454 11.0165 36.605 11.0571 36.5547 11.0571H28.7871C28.3504 11.0571 27.9961 11.4126 27.9961 11.8517C27.9961 12.2904 28.3504 12.6463 28.7871 12.6463H34.9187V13.3122C34.9187 14.4776 35.3394 15.6012 36.1036 16.4769C36.5691 17.01 36.8258 17.6945 36.8258 18.4042V35.3239ZM55.392 44.8699L44.9432 55.3843C44.9259 55.4021 44.9049 55.4108 44.8802 55.4108C44.8558 55.4108 44.8348 55.4021 44.8171 55.3843L41.1039 51.6476C41.068 51.6116 41.068 51.5532 41.1039 51.5172L41.7017 50.9155L51.5527 41.0028C51.5873 40.9676 51.6438 40.9676 51.6784 41.0028L55.392 44.7395C55.4279 44.7755 55.4279 44.8339 55.392 44.8699Z" fill="white"></path> <path d="M24.2837 7.47556C23.8194 7.47556 23.4416 7.85589 23.4416 8.32314C23.4416 8.79079 23.8194 9.17071 24.2837 9.17071C24.7484 9.17071 25.1262 8.79079 25.1262 8.32314C25.1262 7.85589 24.7484 7.47556 24.2837 7.47556Z" fill="white"></path> <path d="M51.8745 43.697C51.4097 43.697 51.032 44.0774 51.032 44.5446C51.032 45.0118 51.4097 45.3922 51.8745 45.3922C52.3388 45.3922 52.7166 45.0118 52.7166 44.5446C52.7166 44.0774 52.3388 43.697 51.8745 43.697Z" fill="white"></path> <path d="M16.1819 51.8036C16.1819 51.3364 15.8042 50.9561 15.3398 50.9561C14.8751 50.9561 14.4973 51.3364 14.4973 51.8036C14.4973 52.2709 14.8751 52.6512 15.3398 52.6512C15.8042 52.6512 16.1819 52.2709 16.1819 51.8036Z" fill="white"></path> </svg> 