<?xml version="1.0" encoding="UTF-8"?> <svg xmlns="http://www.w3.org/2000/svg" width="60" height="60" viewBox="0 0 60 60" fill="none"> <path d="M40.458 18.5477C37.7312 15.7951 34.017 14.2792 29.9999 14.2792C25.9827 14.2792 22.2686 15.7951 19.5418 18.5477C16.8156 21.2997 15.3143 25.0416 15.3143 29.084C15.3143 33.3983 17.1668 37.5151 20.3968 40.3787C22.0893 41.8791 23.1576 43.9542 23.5144 46.4086C22.6462 46.9362 22.0624 47.9071 22.0624 49.0158V49.9232C22.0624 51.302 22.9651 52.4679 24.1953 52.8323C24.0311 53.2091 23.939 53.6259 23.939 54.0647V54.9721C23.939 56.6416 25.262 58 26.8881 58H33.1118C34.7379 58 36.0609 56.6416 36.0609 54.9721V54.0647C36.0609 53.6259 35.9688 53.209 35.8046 52.8323C37.0348 52.4679 37.9375 51.3021 37.9375 49.9232V49.0158C37.9375 47.9071 37.3537 46.9362 36.4855 46.4086C36.8424 43.9542 37.9107 41.8791 39.6031 40.3787C42.8331 37.5152 44.6855 33.3985 44.6855 29.084C44.6855 25.0416 43.1841 21.2997 40.458 18.5477ZM34.212 54.9719C34.212 55.5859 33.7184 56.0853 33.1118 56.0853H26.888C26.2813 56.0853 25.7878 55.5859 25.7878 54.9719V54.0646C25.7878 53.4506 26.2813 52.951 26.888 52.951H33.1117C33.7183 52.951 34.2119 53.4505 34.2119 54.0646V54.9719H34.212ZM36.0885 49.9231C36.0885 50.5371 35.5949 51.0365 34.9883 51.0365H25.0114C24.4047 51.0365 23.9112 50.5371 23.9112 49.9231V49.0157C23.9112 48.4018 24.4047 47.9023 25.0114 47.9023H34.9883C35.5949 47.9023 36.0885 48.4018 36.0885 49.0157V49.9231ZM27.1328 33.9782H25.2992C24.5577 33.9782 23.9545 33.3664 23.9545 32.6145C23.9545 31.8625 24.5577 31.2506 25.2992 31.2506H25.7881C26.5297 31.2506 27.1328 31.8624 27.1328 32.6145V33.9782ZM31.0843 45.9878H28.9817V35.8927H31.0843V45.9878ZM38.4006 38.9243C36.3945 40.7027 35.1204 43.1317 34.678 45.9878H32.933V35.8927H34.7968C36.5577 35.8927 37.9904 34.422 37.9904 32.6145C37.9904 30.8068 36.5577 29.3361 34.7968 29.3361H34.2777C32.5168 29.3361 31.0841 30.8068 31.0841 32.6145V33.9782H28.9816V32.6145C28.9816 30.8068 27.549 29.3361 25.788 29.3361H25.2991C23.5382 29.3361 22.1055 30.8068 22.1055 32.6145C22.1055 34.4221 23.5382 35.8927 25.2991 35.8927H27.1327V45.9878H25.3215C24.8792 43.1317 23.6051 40.7027 21.5989 38.9243C18.7798 36.425 17.1629 32.8382 17.1629 29.084C17.1629 21.7353 22.6814 16.1937 29.9997 16.1937C37.3179 16.1937 42.8364 21.7353 42.8364 29.084C42.8367 32.8382 41.2198 36.4248 38.4006 38.9243ZM32.9331 33.9782V32.6145C32.9331 31.8624 33.5363 31.2506 34.2778 31.2506H34.7969C35.5384 31.2506 36.1416 31.8624 36.1416 32.6145C36.1416 33.3665 35.5384 33.9782 34.7969 33.9782H32.9331Z" fill="white"></path> <path d="M44.8049 50.4058C44.119 50.4058 43.4537 50.1372 42.941 49.6077L40.3414 46.9231L41.6469 45.5675L44.2466 48.2521C44.5995 48.6164 45.0718 48.5096 45.3914 48.2966L48.578 45.1156C48.9211 44.7563 48.8218 44.2779 48.6202 43.9513L46.0823 41.3305C45.7666 41.0045 45.7206 40.4918 45.9727 40.1111C47.356 38.0234 48.3555 35.5901 48.863 33.0745C48.9525 32.6309 49.3302 32.313 49.7679 32.313H53.3838C53.6895 32.258 54.151 32.0311 54.151 31.4806V26.8522C54.1111 26.6148 53.9417 26.0621 53.2341 26.0621H49.5512C49.0995 26.0621 48.7139 25.7241 48.6394 25.2627C48.2558 22.8862 47.292 20.4208 45.8522 18.1332C45.6133 17.7537 45.6641 17.2527 45.9739 16.9327L48.5735 14.2482C48.924 13.8862 48.8215 13.4014 48.6165 13.0734L45.5361 9.78279C45.186 9.42621 44.7197 9.52947 44.4017 9.73923L41.8637 12.3601C41.5494 12.6847 41.0565 12.732 40.6899 12.4731C38.6677 11.0442 36.3108 10.0118 33.874 9.48759C33.445 9.39533 33.1376 9.00393 33.1376 8.55031V4.74699C33.1376 4.24909 32.7754 3.91453 32.4372 3.91453H27.9546C27.6489 3.96945 27.1874 4.19644 27.1874 4.74699V8.66195C27.1874 9.13005 26.8605 9.52947 26.4146 9.60629C24.1124 10.0026 21.7243 10.9982 19.5085 12.4854C19.1429 12.7308 18.6614 12.6785 18.353 12.36L15.7533 9.67545C15.4004 9.31121 14.928 9.41795 14.6085 9.63094L11.4218 12.812C11.0788 13.1713 11.1782 13.6496 11.3798 13.9761L13.9177 16.5969C14.2334 16.9229 14.2794 17.4357 14.0273 17.8163C12.644 19.904 11.6445 22.3373 11.137 24.853C11.0475 25.2967 10.6698 25.6145 10.2321 25.6145H6.61617C6.31052 25.6694 5.84888 25.8964 5.84888 26.4469V31.0751C5.90227 31.3901 6.12251 31.8654 6.65753 31.8654H10.3403C10.792 31.8654 11.1776 32.2034 11.2521 32.6648C11.6356 35.0415 12.5995 37.5068 14.0394 39.7943C14.2783 40.1738 14.2275 40.6749 13.9177 40.9948L11.3181 43.6793C10.9676 44.0413 11.0701 44.5262 11.2752 44.8541L14.3556 48.1449C14.7058 48.5013 15.172 48.3981 15.49 48.1884L18.028 45.5674L19.3336 46.923L16.7339 49.6076C16.6979 49.6448 16.6591 49.6789 16.6176 49.7094C15.4618 50.5619 13.9929 50.4741 13.0454 49.4957C13.0417 49.4918 13.0381 49.488 13.0344 49.4841L9.89319 46.1286C9.86141 46.0946 9.83206 46.0583 9.80537 46.0199C8.97811 44.8239 9.06328 43.304 10.0124 42.3237L12.0894 40.179C10.8826 38.1156 10.0245 35.9304 9.57646 33.7799H6.65753C5.29826 33.7799 4.18362 32.7218 4.00716 31.2639C4.00243 31.2244 4 31.1847 4 31.1448V26.4469C4 25.0417 5.02393 23.8895 6.43486 23.7073C6.47276 23.7023 6.51101 23.6998 6.54926 23.6998H9.49499C10.0277 21.4725 10.91 19.3214 12.0783 17.4012L10.0126 15.2679C9.97639 15.2307 9.94346 15.1904 9.91376 15.1475C9.0865 13.9515 9.17167 12.4317 10.1208 11.4515C10.1245 11.4477 10.1282 11.444 10.132 11.4402L13.3816 8.19636C13.4145 8.16358 13.4496 8.1333 13.4868 8.1059C14.6425 7.25334 16.1116 7.34117 17.059 8.31973L19.1386 10.4672C21.1379 9.21968 23.2553 8.33289 25.3387 7.87006V4.74699C25.3387 3.3416 26.3627 2.18942 27.7736 2.00742C27.8113 2.00251 27.8495 2 27.8877 2H32.4371C33.8427 2 34.9863 3.23224 34.9863 4.74699V7.78594C37.1445 8.33624 39.2286 9.24804 41.089 10.4559L43.1577 8.31973C43.1937 8.28252 43.2326 8.24841 43.274 8.2179C44.4297 7.36534 45.8986 7.45317 46.8462 8.43161C46.8499 8.43544 46.8536 8.43927 46.8572 8.44322L49.9984 11.7989C50.0302 11.8329 50.0595 11.8693 50.0862 11.9078C50.9135 13.1038 50.8282 14.6237 49.8792 15.6038L47.8023 17.7485C49.009 19.8119 49.8671 21.9973 50.3153 24.1476H53.2342C54.6791 24.1476 55.8135 25.1822 55.9928 26.6636C55.9976 26.7031 56 26.743 56 26.7827V31.4806C56 32.8858 54.9761 34.038 53.5651 34.2203C53.5272 34.2252 53.489 34.2277 53.4507 34.2277H50.505C49.9723 36.455 49.09 38.6061 47.9217 40.5264L49.9874 42.6596C50.0236 42.6968 50.0565 42.7372 50.0862 42.78C50.9135 43.976 50.8283 45.4959 49.8792 46.4761C49.8755 46.4799 49.8718 46.4836 49.868 46.4875L46.6184 49.7313C46.5855 49.7641 46.5504 49.7943 46.5132 49.8217C45.9828 50.2125 45.3864 50.4058 44.8049 50.4058Z" fill="white"></path> </svg> 