<?xml version="1.0" encoding="UTF-8"?> <svg xmlns="http://www.w3.org/2000/svg" width="60" height="60" viewBox="0 0 60 60" fill="none"> <path d="M50.8989 19.2668C50.7819 17.8706 50.1968 16.5908 49.2606 15.66C48.3245 14.7292 47.0958 14.1474 45.633 14.1474H40.5319V11.4714C40.5319 8.56269 39.3617 5.94483 37.4309 4.08325C35.5 2.16349 32.867 1 30 1C27.0745 1 24.4415 2.16349 22.5692 4.08325C20.6383 5.94483 19.4681 8.56269 19.4681 11.4714V14.1474H14.367C12.9043 14.1474 11.6755 14.7292 10.7394 15.66C9.80319 16.5908 9.21809 17.8706 9.10106 19.2668L6 53.7061C6 53.8806 6 54.0552 6 54.1133C6 55.3932 6.5266 56.6148 7.46277 57.4875C8.34043 58.3019 9.51064 58.8837 10.7394 59H10.7979C10.9734 59 11.1489 59 11.266 59H48.734C48.8511 59 49.0266 59 49.2021 59C50.4894 58.8837 51.6596 58.3019 52.5372 57.4875C53.4734 56.6148 54 55.3932 54 54.0552C54 53.9388 54 53.8225 54 53.6479L50.8989 19.2668ZM22.6862 11.4714C22.6862 9.43531 23.5053 7.6319 24.8511 6.29388C26.1968 4.95587 28.0106 4.14142 30.0585 4.14142C32.1064 4.14142 33.9202 4.95587 35.266 6.29388C36.6117 7.6319 37.4309 9.43531 37.4309 11.4714V14.1474H22.6862V11.4714ZM50.7234 54.1133C50.7234 54.5787 50.5479 54.986 50.1968 55.2768C49.8457 55.6259 49.3192 55.8586 48.8511 55.9168C48.8511 55.9168 48.7926 55.9168 48.6755 55.9168H11.266C11.1489 55.9168 11.0904 55.9168 11.0904 55.9168H11.0319C10.5053 55.8586 10.0372 55.6259 9.68617 55.2768C9.33511 54.986 9.15957 54.5787 9.15957 54.1133V53.9388L12.2606 19.5577C12.3191 18.9178 12.6117 18.336 13.0213 17.9288C13.3723 17.5797 13.8404 17.347 14.367 17.347H19.4681V24.4443C19.4681 25.317 20.1702 26.015 21.0479 26.015C21.9255 26.015 22.6277 25.317 22.6277 24.4443V17.347H37.2553V24.4443C37.2553 25.317 37.9574 26.015 38.8351 26.015C39.7128 26.015 40.4149 25.317 40.4149 24.4443V17.347H45.516C46.0426 17.347 46.5106 17.5797 46.8617 17.9288C47.2713 18.336 47.5638 18.9178 47.6223 19.5577L50.7234 53.997V54.1133Z" fill="white"></path> </svg> 