<?xml version="1.0" encoding="UTF-8"?> <svg xmlns="http://www.w3.org/2000/svg" width="60" height="60" viewBox="0 0 60 60" fill="none"> <path d="M54.0291 13.4279H43.4939V9.55862C43.492 7.81975 42.8004 6.15265 41.5709 4.92308C40.3414 3.69351 38.6744 3.0019 36.9356 3H22.9506C21.2118 3.0019 19.5448 3.69351 18.3153 4.92308C17.0858 6.15265 16.3942 7.81975 16.3923 9.55862V13.4279H5.97091C4.9182 13.4293 3.90901 13.8482 3.16463 14.5926C2.42025 15.337 2.00143 16.3463 2 17.399V29.3064C1.99972 29.5401 2.07754 29.7673 2.2211 29.9518C2.36466 30.1362 2.56573 30.2675 2.79239 30.3246L3.97887 30.6241V51.0385C3.97998 52.0888 4.39769 53.0958 5.14034 53.8385C5.88299 54.5812 6.88992 54.9989 7.94019 55H52.0598C53.1101 54.9989 54.117 54.5812 54.8597 53.8385C55.6023 53.0958 56.02 52.0888 56.0211 51.0385V30.6211L57.2076 30.3216C57.4343 30.2645 57.6353 30.1332 57.7789 29.9488C57.9225 29.7643 58.0003 29.5371 58 29.3034V17.399C57.9986 16.3463 57.5798 15.337 56.8354 14.5926C56.091 13.8482 55.0818 13.4293 54.0291 13.4279ZM18.4886 9.55862C18.4898 8.37555 18.9603 7.24129 19.7969 6.40473C20.6334 5.56817 21.7676 5.09763 22.9506 5.09636H36.9356C38.1186 5.09763 39.2528 5.56817 40.0893 6.40473C40.9259 7.24129 41.3964 8.37555 41.3976 9.55862V13.4279H39.3014V9.55862C39.3006 8.93139 39.0511 8.33008 38.6076 7.88656C38.1641 7.44304 37.5628 7.19352 36.9356 7.19273H22.9506C22.3234 7.19352 21.7221 7.44304 21.2786 7.88656C20.8351 8.33008 20.5856 8.93139 20.5848 9.55862V13.4279H18.4886V9.55862ZM22.6811 13.4279V9.55862C22.682 9.48743 22.7107 9.41941 22.761 9.36906C22.8114 9.31872 22.8794 9.29002 22.9506 9.28909H36.9356C37.0068 9.29002 37.0748 9.31872 37.1252 9.36906C37.1755 9.41941 37.2042 9.48743 37.2051 9.55862V13.4279H22.6811ZM4.09626 17.399C4.09673 16.902 4.29439 16.4254 4.64586 16.0739C4.99732 15.7224 5.47387 15.5248 5.97091 15.5243H54.0291C54.5261 15.5248 55.0027 15.7224 55.3541 16.0739C55.7056 16.4254 55.9033 16.902 55.9037 17.399V28.4888L54.7466 28.7823C54.7364 28.783 54.7261 28.7844 54.7161 28.7865L33.6475 34.1232V33.4212C33.6475 32.7519 33.382 32.1099 32.9093 31.6361C32.4366 31.1622 31.7953 30.8952 31.126 30.8936H28.7602C28.0909 30.895 27.4494 31.162 26.9767 31.6359C26.504 32.1098 26.2386 32.7519 26.2387 33.4212V34.0927L5.28394 28.7853H5.27016L4.09626 28.49V17.399ZM28.3326 35.4601C28.3326 35.4529 28.3326 35.4469 28.3326 35.4397V33.4212C28.3319 33.3077 28.3763 33.1985 28.4561 33.1177C28.5358 33.0369 28.6443 32.9909 28.7578 32.99H31.1236C31.18 32.9898 31.2359 33.0009 31.2879 33.0226C31.34 33.0443 31.3872 33.0761 31.4268 33.1163C31.4664 33.1564 31.4976 33.2041 31.5185 33.2565C31.5395 33.3088 31.5498 33.3648 31.5488 33.4212V38.6322C31.5485 38.745 31.5035 38.8532 31.4238 38.933C31.344 39.0128 31.2358 39.0577 31.123 39.0581H28.7584C28.6455 39.0579 28.5373 39.013 28.4575 38.9331C28.3777 38.8533 28.3327 38.7451 28.3326 38.6322V35.4601ZM52.0598 52.9024H7.94019C7.44574 52.9018 6.97172 52.7051 6.62209 52.3554C6.27246 52.0058 6.07576 51.5318 6.07512 51.0373V31.1518L26.2363 36.2531V38.6298C26.237 39.2985 26.5029 39.9397 26.9757 40.4126C27.4486 40.8854 28.0897 41.1514 28.7584 41.152H31.126C31.7946 41.1512 32.4357 40.8852 32.9085 40.4124C33.3813 39.9396 33.6473 39.2985 33.6481 38.6298V36.2885L53.9249 31.1506V51.0361C53.9246 51.5308 53.728 52.0051 53.3783 52.355C53.0287 52.7049 52.5545 52.9018 52.0598 52.9024Z" fill="white" stroke="white" stroke-width="0.3"></path> </svg> 