<?xml version="1.0" encoding="UTF-8"?> <svg xmlns="http://www.w3.org/2000/svg" width="60" height="60" viewBox="0 0 60 60" fill="none"> <path d="M49.416 4.72144L49.4491 11.2842C42.458 4.02995 31.8535 1.17466 21.998 4.2336C10.7181 7.73468 3.01354 18.1764 3.00077 29.9836C2.94081 32.284 6.41768 32.2976 6.37572 29.997C6.3872 19.6538 13.1102 10.5284 22.9934 7.46082C31.9944 4.66708 41.675 7.50738 47.7683 14.4686L39.7363 14.5113C37.4841 14.5234 37.4973 17.9023 39.7496 17.8899L51.1697 17.8274C52.0633 17.8225 52.8592 17.0822 52.8539 16.12L52.7913 4.70849C52.7861 3.75032 52.0154 2.97491 51.073 3.00062C50.1305 3.02633 49.4113 3.79419 49.416 4.72144ZM53.6248 30.0034C53.6136 40.3465 46.8903 49.472 37.0071 52.5396C28.0061 55.3333 18.3255 52.493 12.2322 45.5318L20.2642 45.4891C22.5164 45.4769 22.5031 42.0981 20.2509 42.1105C16.4442 42.1315 9.63013 42.1685 8.83076 42.173C7.93722 42.1779 7.1413 42.9182 7.14658 43.8804L7.20909 55.2919C7.21435 56.2501 7.98499 57.0255 8.9427 56.9994C9.86952 56.9738 10.5887 56.206 10.584 55.2787C10.5732 53.0912 10.5509 48.716 10.5509 48.716C17.542 55.9702 28.1466 58.8255 38.002 55.7665C49.2819 52.2655 56.9865 41.8238 56.9992 30.0166C57.0292 28.8664 56.1748 28.2894 55.3186 28.286C54.4624 28.2827 53.6038 28.853 53.6248 30.0034Z" fill="white"></path> </svg> 