<?xml version="1.0" encoding="UTF-8"?> <svg xmlns="http://www.w3.org/2000/svg" width="60" height="60" viewBox="0 0 60 60" fill="none"> <path d="M45.4613 24.896C46.6105 24.1656 47.4329 23.0425 47.7863 21.7106C48.1577 20.3102 47.9671 18.8474 47.2493 17.5919C45.803 15.0616 42.6305 14.1531 40.0926 15.504L35.2665 7.06108C34.6282 5.94442 33.5938 5.14469 32.354 4.80912C31.1141 4.47355 29.8223 4.64379 28.717 5.28862C27.6114 5.93332 26.8196 6.97802 26.4874 8.23014C26.237 9.17369 26.2714 10.147 26.5764 11.0472C24.2841 16.8819 19.4325 22.8324 12.8455 27.9087C12.7433 27.8396 12.6304 27.7862 12.5092 27.7533C12.2191 27.6747 11.9098 27.7159 11.6496 27.8676L5.49127 31.4589C3.41946 32.6671 1.93532 34.6258 1.3123 36.9742C0.689288 39.3226 1.00487 41.7685 2.20118 43.8611C3.86429 46.7706 6.8917 48.3989 10.0008 48.3989C11.5247 48.3989 13.0683 48.0076 14.4802 47.1843L14.8327 46.9788L21.6242 55.9348C22.0934 56.5536 22.7476 56.9177 23.5165 56.9881C23.6038 56.9961 23.6903 57 23.7759 57C24.444 57 25.0581 56.7588 25.5647 56.2945L27.4352 54.5803C28.4759 53.6262 28.6189 52.0549 27.7676 50.9253L21.3817 42.451C28.9666 39.283 36.4254 38.0417 42.5263 38.9473C43.4505 40.0156 44.7817 40.602 46.1432 40.6019C46.9561 40.6019 47.7794 40.3932 48.5325 39.9541C50.8221 38.619 51.6093 35.6515 50.2874 33.3389L45.4613 24.896ZM45.2873 18.736C45.7025 19.4623 45.8128 20.3083 45.5978 21.1184C45.4011 21.8599 44.9529 22.4891 44.3271 22.9121L41.2265 17.4879C42.6804 16.7662 44.4655 17.2983 45.2873 18.736ZM9.99704 46.1111C7.67183 46.111 5.40699 44.893 4.163 42.717C3.26937 41.1537 3.03409 39.3246 3.50056 37.5665C3.96692 35.8085 5.07612 34.3432 6.62392 33.4406L11.8013 30.4214L18.5247 42.1835L13.3473 45.2027C12.2912 45.8186 11.1372 46.1112 9.99704 46.1111ZM25.9126 52.8858L24.0423 54.5999C23.9434 54.6905 23.8527 54.7213 23.7203 54.709C23.5873 54.6969 23.5039 54.6504 23.4227 54.5435L16.8113 45.825L19.7748 44.0968L25.9648 52.3112C26.0987 52.4888 26.0762 52.7358 25.9126 52.8858ZM20.1684 40.4823L14.0819 29.8344C20.422 24.9759 25.2629 19.3021 27.9396 13.6137L41.0055 36.4715C34.7897 35.9685 27.5041 37.3658 20.1684 40.4823ZM47.3997 37.9722C46.1917 38.6768 44.6422 38.257 43.9449 37.0374L28.9239 10.7594C28.2267 9.53958 28.642 7.97431 29.8496 7.27011C30.2356 7.04506 30.6654 6.93008 31.1026 6.93008C31.3239 6.93008 31.5473 6.9596 31.7676 7.0192C32.4229 7.19654 32.9688 7.61769 33.3044 8.20508L48.3252 34.4829C49.0226 35.7028 48.6073 37.268 47.3997 37.9722ZM48.6315 16.7858C48.3187 16.2386 48.5043 15.5389 49.0461 15.223L53.5935 12.5713C54.1353 12.2552 54.8281 12.4429 55.1408 12.99C55.4537 13.5372 55.268 14.237 54.7262 14.5529L50.1789 17.2046C50.0006 17.3086 49.8057 17.3581 49.6136 17.3581C49.222 17.3581 48.8413 17.1529 48.6315 16.7858ZM43.3891 9.41716L46.1585 4.57228C46.4713 4.02517 47.1639 3.83742 47.7058 4.15354C48.2476 4.46943 48.4333 5.16917 48.1204 5.7164L45.3511 10.5613C45.1413 10.9283 44.7605 11.1336 44.369 11.1336C44.1769 11.1336 43.9821 11.0841 43.8037 10.98C43.2618 10.6641 43.0763 9.96439 43.3891 9.41716ZM59 23.9118C59 24.5437 58.4928 25.056 57.8672 25.056H52.3285C51.703 25.056 51.1958 24.5437 51.1958 23.9118C51.1958 23.2799 51.703 22.7677 52.3285 22.7677H57.8672C58.4928 22.7677 59 23.2799 59 23.9118Z" fill="white"></path> </svg> 