<?xml version="1.0" encoding="utf-8"?>
<!-- Generator: Adobe Illustrator 26.3.1, SVG Export Plug-In . SVG Version: 6.00 Build 0)  -->
<svg version="1.1" id="Layer_1" xmlns="http://www.w3.org/2000/svg" xmlns:xlink="http://www.w3.org/1999/xlink" x="0px" y="0px"
	 viewBox="0 0 300 49.9" style="enable-background:new 0 0 300 49.9;" xml:space="preserve">
<style type="text/css">
	.st0{fill:#FFFFFF;}
</style>
<g>
	<path class="st0" d="M71.2,32.3h-4.9l7.4-21.4h5.8l7.4,21.4h-4.9l-5.4-16.5h-0.2L71.2,32.3z M70.9,23.9h11.5v3.5H70.9V23.9z"/>
	<path class="st0" d="M94,10.9v21.4h-4.5V10.9H94z"/>
</g>
<g>
	<path class="st0" d="M100.2,14.6v-3.7h17.6v3.7h-6.6v17.7h-4.5V14.6H100.2z"/>
	<path class="st0" d="M125.6,32.6c-1.7,0-3.1-0.3-4.3-1c-1.2-0.7-2.1-1.6-2.7-2.9c-0.6-1.2-1-2.7-1-4.4c0-1.7,0.3-3.1,1-4.3
		c0.6-1.2,1.5-2.2,2.7-2.9c1.2-0.7,2.5-1,4.1-1c1.1,0,2,0.2,3,0.5c0.9,0.3,1.7,0.8,2.4,1.5c0.7,0.7,1.2,1.5,1.6,2.5
		c0.4,1,0.6,2.2,0.6,3.6v1.2h-13.6v-2.8h9.4c0-0.6-0.1-1.2-0.4-1.7c-0.3-0.5-0.7-0.9-1.2-1.2c-0.5-0.3-1.1-0.4-1.7-0.4
		c-0.7,0-1.3,0.2-1.8,0.5c-0.5,0.3-0.9,0.7-1.2,1.2c-0.3,0.5-0.4,1.1-0.4,1.7v2.6c0,0.8,0.1,1.5,0.4,2.1s0.7,1,1.3,1.3
		c0.5,0.3,1.2,0.5,1.9,0.5c0.5,0,0.9-0.1,1.4-0.2c0.4-0.1,0.8-0.3,1.1-0.6c0.3-0.3,0.5-0.6,0.7-1l4.1,0.3c-0.2,1-0.6,1.9-1.3,2.6
		s-1.5,1.3-2.5,1.7C128.1,32.4,126.9,32.6,125.6,32.6z"/>
	<path class="st0" d="M143.1,32.6c-1.6,0-3.1-0.3-4.2-1.1c-1.2-0.7-2.1-1.7-2.7-2.9c-0.6-1.2-0.9-2.7-0.9-4.3c0-1.6,0.3-3.1,1-4.3
		c0.6-1.2,1.5-2.2,2.7-2.9c1.2-0.7,2.6-1.1,4.2-1.1c1.4,0,2.6,0.3,3.7,0.8c1.1,0.5,1.9,1.2,2.5,2.1c0.6,0.9,1,2,1,3.2h-4.2
		c-0.1-0.8-0.4-1.4-0.9-1.9c-0.5-0.5-1.2-0.7-2-0.7c-0.7,0-1.3,0.2-1.8,0.6c-0.5,0.4-0.9,0.9-1.2,1.6c-0.3,0.7-0.4,1.6-0.4,2.6
		c0,1,0.1,1.9,0.4,2.6c0.3,0.7,0.7,1.3,1.2,1.6c0.5,0.4,1.1,0.6,1.8,0.6c0.5,0,1-0.1,1.4-0.3c0.4-0.2,0.7-0.5,1-0.9
		c0.3-0.4,0.4-0.9,0.5-1.4h4.2c-0.1,1.2-0.4,2.3-1,3.2c-0.6,0.9-1.4,1.7-2.5,2.2C145.8,32.3,144.5,32.6,143.1,32.6z"/>
	<path class="st0" d="M157.6,23v9.3h-4.5V10.9h4.3V19h0.2c0.4-0.9,0.9-1.7,1.8-2.2c0.8-0.5,1.8-0.8,3-0.8c1.1,0,2.1,0.2,2.9,0.7
		c0.8,0.5,1.5,1.2,1.9,2.1c0.5,0.9,0.7,2,0.7,3.2v10.2h-4.5v-9.4c0-1-0.2-1.8-0.7-2.3c-0.5-0.6-1.2-0.8-2.1-0.8
		c-0.6,0-1.1,0.1-1.6,0.4c-0.5,0.3-0.8,0.6-1.1,1.1C157.7,21.7,157.6,22.3,157.6,23z"/>
	<path class="st0" d="M176,23v9.3h-4.5V16.2h4.2V19h0.2c0.4-0.9,1-1.7,1.8-2.2c0.8-0.5,1.9-0.8,3-0.8c1.1,0,2.1,0.2,2.9,0.7
		c0.8,0.5,1.5,1.2,1.9,2.1c0.5,0.9,0.7,2,0.7,3.2v10.2h-4.5v-9.4c0-1-0.2-1.8-0.8-2.3c-0.5-0.6-1.2-0.8-2.1-0.8
		c-0.6,0-1.1,0.1-1.6,0.4c-0.5,0.3-0.8,0.6-1.1,1.1S176,22.3,176,23z"/>
	<path class="st0" d="M197.1,32.6c-1.6,0-3-0.3-4.2-1c-1.2-0.7-2.1-1.7-2.7-2.9c-0.6-1.2-1-2.7-1-4.3c0-1.7,0.3-3.1,1-4.4
		c0.6-1.2,1.6-2.2,2.7-2.9c1.2-0.7,2.6-1,4.2-1c1.6,0,3,0.3,4.2,1c1.2,0.7,2.1,1.7,2.7,2.9c0.6,1.2,1,2.7,1,4.4c0,1.6-0.3,3.1-1,4.3
		s-1.6,2.2-2.7,2.9C200.1,32.2,198.7,32.6,197.1,32.6z M197.1,29.1c0.7,0,1.4-0.2,1.9-0.6c0.5-0.4,0.9-1,1.1-1.7
		c0.3-0.7,0.4-1.6,0.4-2.5s-0.1-1.8-0.4-2.5c-0.3-0.7-0.6-1.3-1.1-1.7c-0.5-0.4-1.1-0.6-1.9-0.6c-0.7,0-1.4,0.2-1.9,0.6
		c-0.5,0.4-0.9,1-1.1,1.7c-0.3,0.7-0.4,1.6-0.4,2.5s0.1,1.8,0.4,2.5c0.3,0.7,0.6,1.3,1.1,1.7C195.7,28.9,196.4,29.1,197.1,29.1z"/>
	<path class="st0" d="M212.4,10.9v21.4h-4.5V10.9H212.4z"/>
	<path class="st0" d="M223.2,32.6c-1.6,0-3-0.3-4.2-1c-1.2-0.7-2.1-1.7-2.7-2.9c-0.6-1.2-1-2.7-1-4.3c0-1.7,0.3-3.1,1-4.4
		c0.6-1.2,1.6-2.2,2.7-2.9c1.2-0.7,2.6-1,4.2-1c1.6,0,3,0.3,4.2,1c1.2,0.7,2.1,1.7,2.7,2.9c0.6,1.2,1,2.7,1,4.4c0,1.6-0.3,3.1-1,4.3
		s-1.6,2.2-2.7,2.9C226.2,32.2,224.8,32.6,223.2,32.6z M223.2,29.1c0.7,0,1.4-0.2,1.9-0.6c0.5-0.4,0.9-1,1.1-1.7
		c0.3-0.7,0.4-1.6,0.4-2.5s-0.1-1.8-0.4-2.5c-0.3-0.7-0.6-1.3-1.1-1.7c-0.5-0.4-1.1-0.6-1.9-0.6c-0.7,0-1.4,0.2-1.9,0.6
		c-0.5,0.4-0.9,1-1.1,1.7c-0.3,0.7-0.4,1.6-0.4,2.5s0.1,1.8,0.4,2.5c0.3,0.7,0.6,1.3,1.1,1.7C221.8,28.9,222.4,29.1,223.2,29.1z"/>
	<path class="st0" d="M241.2,38.6c-1.4,0-2.7-0.2-3.7-0.6c-1-0.4-1.8-0.9-2.5-1.6c-0.6-0.7-1-1.4-1.2-2.3l4.1-0.6
		c0.1,0.3,0.3,0.6,0.6,0.9c0.3,0.3,0.6,0.5,1.1,0.7c0.4,0.2,1,0.3,1.6,0.3c1,0,1.8-0.2,2.4-0.7c0.6-0.5,0.9-1.3,0.9-2.4v-2.9h-0.2
		c-0.2,0.4-0.5,0.9-0.9,1.3c-0.4,0.4-0.9,0.7-1.5,1c-0.6,0.3-1.3,0.4-2.2,0.4c-1.2,0-2.3-0.3-3.3-0.8c-1-0.6-1.8-1.4-2.4-2.6
		c-0.6-1.2-0.9-2.6-0.9-4.4c0-1.8,0.3-3.3,0.9-4.6c0.6-1.2,1.4-2.1,2.4-2.7c1-0.6,2.1-0.9,3.2-0.9c0.9,0,1.7,0.2,2.3,0.5
		c0.6,0.3,1.1,0.7,1.5,1.1c0.4,0.4,0.7,0.9,0.9,1.3h0.2v-2.7h4.4v16.2c0,1.4-0.3,2.5-1,3.4c-0.7,0.9-1.6,1.6-2.8,2.1
		C244.1,38.4,242.7,38.6,241.2,38.6z M241.3,28.7c0.7,0,1.3-0.2,1.8-0.5c0.5-0.4,0.9-0.9,1.2-1.5c0.3-0.7,0.4-1.5,0.4-2.4
		s-0.1-1.8-0.4-2.5c-0.3-0.7-0.6-1.2-1.2-1.6c-0.5-0.4-1.1-0.6-1.8-0.6c-0.7,0-1.3,0.2-1.9,0.6c-0.5,0.4-0.9,0.9-1.1,1.6
		c-0.3,0.7-0.4,1.5-0.4,2.4c0,0.9,0.1,1.7,0.4,2.4c0.3,0.7,0.6,1.2,1.1,1.6C240,28.5,240.6,28.7,241.3,28.7z"/>
	<path class="st0" d="M254.8,14.1c-0.7,0-1.2-0.2-1.7-0.7c-0.5-0.4-0.7-1-0.7-1.6c0-0.6,0.2-1.1,0.7-1.6c0.5-0.4,1-0.7,1.7-0.7
		c0.7,0,1.2,0.2,1.7,0.7s0.7,1,0.7,1.6c0,0.6-0.2,1.2-0.7,1.6S255.5,14.1,254.8,14.1z M252.6,32.3V16.2h4.5v16.1H252.6z"/>
	<path class="st0" d="M267.9,32.6c-1.7,0-3.1-0.3-4.3-1c-1.2-0.7-2.1-1.6-2.7-2.9c-0.6-1.2-1-2.7-1-4.4c0-1.7,0.3-3.1,1-4.3
		c0.6-1.2,1.5-2.2,2.7-2.9s2.5-1,4.1-1c1.1,0,2,0.2,3,0.5c0.9,0.3,1.7,0.8,2.4,1.5c0.7,0.7,1.2,1.5,1.6,2.5c0.4,1,0.6,2.2,0.6,3.6
		v1.2h-13.6v-2.8h9.4c0-0.6-0.1-1.2-0.4-1.7c-0.3-0.5-0.7-0.9-1.2-1.2c-0.5-0.3-1.1-0.4-1.7-0.4c-0.7,0-1.3,0.2-1.8,0.5
		c-0.5,0.3-0.9,0.7-1.2,1.2c-0.3,0.5-0.4,1.1-0.4,1.7v2.6c0,0.8,0.1,1.5,0.4,2.1s0.7,1,1.3,1.3c0.5,0.3,1.2,0.5,1.9,0.5
		c0.5,0,0.9-0.1,1.4-0.2c0.4-0.1,0.8-0.3,1.1-0.6c0.3-0.3,0.5-0.6,0.7-1l4.1,0.3c-0.2,1-0.6,1.9-1.3,2.6s-1.5,1.3-2.5,1.7
		C270.4,32.4,269.3,32.6,267.9,32.6z"/>
	<path class="st0" d="M291.6,20.8l-4.1,0.3c-0.1-0.3-0.2-0.7-0.4-0.9c-0.2-0.3-0.5-0.5-0.9-0.7c-0.4-0.2-0.8-0.3-1.3-0.3
		c-0.7,0-1.3,0.1-1.7,0.4c-0.5,0.3-0.7,0.7-0.7,1.2c0,0.4,0.2,0.7,0.5,1c0.3,0.3,0.8,0.5,1.6,0.6l2.9,0.6c1.6,0.3,2.7,0.8,3.5,1.5
		c0.8,0.7,1.1,1.6,1.1,2.8c0,1.1-0.3,2-0.9,2.8c-0.6,0.8-1.5,1.4-2.5,1.9c-1.1,0.4-2.3,0.7-3.7,0.7c-2.1,0-3.8-0.4-5.1-1.3
		c-1.3-0.9-2-2.1-2.2-3.6l4.4-0.2c0.1,0.6,0.5,1.1,1,1.5c0.5,0.3,1.2,0.5,2,0.5c0.8,0,1.4-0.2,1.9-0.5c0.5-0.3,0.7-0.7,0.7-1.2
		c0-0.4-0.2-0.7-0.5-1c-0.3-0.3-0.9-0.5-1.5-0.6l-2.8-0.6c-1.6-0.3-2.7-0.9-3.5-1.6c-0.8-0.8-1.1-1.8-1.1-3c0-1,0.3-1.9,0.8-2.7
		c0.6-0.7,1.4-1.3,2.4-1.7c1-0.4,2.2-0.6,3.6-0.6c2,0,3.6,0.4,4.8,1.3C290.7,18.1,291.4,19.3,291.6,20.8z"/>
</g>
<g>
	<g>
		<path class="st0" d="M9.6,27.8L9.6,27.8c-3.6,0.1-6.7-2.4-6.7-5.7v-1.6c0-3.3,3.1-5.8,6.7-5.7l0,0c3.5,0.1,6.2,2.7,6.2,5.7v1.5
			C15.8,25.1,13,27.7,9.6,27.8z"/>
	</g>
	<g>
		<path class="st0" d="M20.7,15.3L20.7,15.3c-3.1-0.1-5.7-2.6-5.7-5.6V7.9c0-3,2.6-5.1,5.7-4.7l0,0c3,0.3,5.3,2.8,5.3,5.6v1.7
			C25.9,13.3,23.6,15.4,20.7,15.3z"/>
	</g>
	<g>
		<path class="st0" d="M20.7,39.5L20.7,39.5c-3.1,0.4-5.7-1.7-5.7-4.7V33c0-3,2.6-5.5,5.7-5.6l0,0c3-0.1,5.3,2,5.3,4.8v1.7
			C25.9,36.6,23.6,39.1,20.7,39.5z"/>
	</g>
	<g>
		<path class="st0" d="M35.2,37.8l0.3,0c1.4-0.2,2.6-1.5,2.6-3v-5.4c0-1.5-1.1-2.6-2.6-2.6l-0.3,0c-1.5,0.1-2.7,1.4-2.7,2.9v5.6
			C32.6,36.8,33.8,37.9,35.2,37.8z"/>
	</g>
	<g>
		<path class="st0" d="M44.6,36.7L44.6,36.7c-0.6,0.1-1.2-0.4-1.2-1.2v-7.7c0-0.7,0.5-1.3,1.2-1.3h0c0.6,0,1.1,0.5,1.1,1.2v7.6
			C45.7,36,45.2,36.6,44.6,36.7z"/>
	</g>
	<g>
		<path class="st0" d="M44.6,16.3L44.6,16.3c-0.6,0-1.2-0.6-1.2-1.3V7.2c0-0.7,0.5-1.2,1.2-1.2l0,0c0.6,0.1,1.1,0.7,1.1,1.4v7.6
			C45.7,15.8,45.2,16.3,44.6,16.3z"/>
	</g>
	<g>
		<path class="st0" d="M48.3,26.3L48.3,26.3c-0.6,0-1.1-0.5-1.1-1.2v-7.5c0-0.7,0.5-1.2,1.1-1.2l0,0c0.6,0,1.1,0.6,1.1,1.3V25
			C49.3,25.7,48.8,26.3,48.3,26.3z"/>
	</g>
	<g>
		<path class="st0" d="M40.6,26.6L40.6,26.6c-1.4,0.1-2.5-1.1-2.5-2.6v-5.4c0-1.5,1.1-2.6,2.5-2.6h0c1.3,0.1,2.4,1.3,2.4,2.7v5.2
			C43,25.4,41.9,26.6,40.6,26.6z"/>
	</g>
	<g>
		<path class="st0" d="M29.1,27.1l-0.5,0c-2.2,0.1-4-1.6-4-3.8v-3.8c0-2.2,1.8-3.9,4-3.8l0.5,0c2.1,0.1,3.8,1.8,3.8,3.9v3.6
			C32.8,25.2,31.2,27,29.1,27.1z"/>
	</g>
	<g>
		<path class="st0" d="M35.6,15.9l-0.4,0c-1.5-0.1-2.7-1.4-2.7-2.9V7.4c0-1.5,1.2-2.6,2.7-2.5l0.4,0c1.4,0.2,2.6,1.5,2.6,3v5.4
			C38.1,14.8,37,16,35.6,15.9z"/>
	</g>
</g>
</svg>
