<?xml version="1.0" encoding="UTF-8"?> <svg xmlns="http://www.w3.org/2000/svg" width="26" height="26" viewBox="0 0 26 26" fill="none"> <path fill-rule="evenodd" clip-rule="evenodd" d="M12.8206 25.6411C19.9012 25.6411 25.6411 19.9012 25.6411 12.8206C25.6411 5.73996 19.9012 0 12.8206 0C5.73996 0 0 5.73996 0 12.8206C0 19.9012 5.73996 25.6411 12.8206 25.6411ZM5.60938 12.8209C5.60938 8.83655 8.83655 5.60938 12.8209 5.60938C16.8053 5.60938 20.0325 8.83655 20.0325 12.8209C20.0325 16.8053 16.8053 20.0325 12.8209 20.0325C11.3606 20.0325 9.9904 19.5998 8.85458 18.8426L5.98798 19.6719L6.97957 17.0577C6.11418 15.8678 5.60938 14.4075 5.60938 12.8209ZM15.8859 16.571L16.6611 15.8137C16.9315 15.4892 16.9315 15.0024 16.6431 14.696L15.5073 13.5601C15.1106 13.1635 14.4255 13.3258 14.2633 13.8486C14.1551 14.2092 13.7404 14.4255 13.3798 14.3354C12.5685 14.1371 11.4688 13.0914 11.2705 12.244C11.1443 11.8834 11.3967 11.4868 11.7572 11.3606C12.2801 11.1983 12.4423 10.5132 12.0457 10.1166L10.9099 8.98078C10.6034 8.69232 10.1166 8.69232 9.82814 8.98078L9.0529 9.75603C8.29568 10.5493 9.14304 12.6947 11.0361 14.5878C12.9291 16.4988 15.0746 17.3823 15.8859 16.571Z" fill="#05DB7D"></path> </svg> 